<?xml version="1.0" encoding="UTF-8" standalone="no"?>
<!-- Created with Inkscape (http://www.inkscape.org/) -->

<svg
   width="210mm"
   height="297mm"
   viewBox="0 0 210 297"
   version="1.1"
   id="svg5"
   sodipodi:docname="seegeist_sketch.svg"
   inkscape:version="1.1 (c4e8f9ed74, 2021-05-24)"
   xmlns:inkscape="http://www.inkscape.org/namespaces/inkscape"
   xmlns:sodipodi="http://sodipodi.sourceforge.net/DTD/sodipodi-0.dtd"
   xmlns="http://www.w3.org/2000/svg"
   xmlns:svg="http://www.w3.org/2000/svg">
  <sodipodi:namedview
     id="namedview7"
     pagecolor="#ffffff"
     bordercolor="#666666"
     borderopacity="1.0"
     inkscape:pageshadow="2"
     inkscape:pageopacity="0.0"
     inkscape:pagecheckerboard="0"
     inkscape:document-units="mm"
     showgrid="false"
     inkscape:zoom="1.1759259"
     inkscape:cx="511.93702"
     inkscape:cy="636.9449"
     inkscape:window-width="1920"
     inkscape:window-height="1051"
     inkscape:window-x="0"
     inkscape:window-y="0"
     inkscape:window-maximized="1"
     inkscape:current-layer="layer1" />
  <defs
     id="defs2" />
  <g
     inkscape:label="Layer 1"
     inkscape:groupmode="layer"
     id="layer1">
    <path
       style="fill:#000000;stroke-width:1"
       d="M 115.82489,236.11708 V 198.5459 l 39.29063,0.007 39.29062,0.007 v 37.56433 37.56433 h -39.29062 -39.29063 z m 46.16979,34.42234 c 2.77732,-0.59736 5.41425,-1.68544 6.41295,-2.64619 0.92109,-0.8861 1.01356,-1.78862 0.41476,-4.04816 -0.51783,-1.95398 -0.52101,-2.06938 -0.0772,-2.79921 0.25461,-0.41868 0.83616,-0.91582 1.29235,-1.10478 0.78673,-0.32587 1.19121,-0.31114 4.00102,0.1457 0.74262,0.12074 1.03757,0.0338 1.45521,-0.42915 0.4329,-0.47984 0.51282,-0.90194 0.46051,-2.43242 -0.0606,-1.77307 -0.0268,-1.88803 0.79375,-2.70293 0.62403,-0.6197 1.35257,-0.97471 2.67965,-1.30576 2.37659,-0.59287 3.24653,-1.06341 3.87664,-2.09683 0.7073,-1.16001 0.65195,-1.77399 -0.27529,-3.05402 -0.43656,-0.60265 -0.79375,-1.32431 -0.79375,-1.60368 0,-0.68413 1.28668,-1.72375 2.83382,-2.28968 3.2937,-1.2048 5.13605,-2.06473 5.37329,-2.50801 0.44601,-0.83338 0.30154,-1.86445 -1.20894,-8.62831 -2.27319,-10.17917 -2.33666,-10.38493 -3.63482,-11.78325 -1.06618,-1.14844 -2.34321,-1.34545 -5.59232,-0.86275 -3.33533,0.49551 -4.00992,0.35046 -5.83289,-1.25418 -1.29755,-1.14215 -2.30275,-2.91967 -3.84267,-6.79508 -3.20185,-8.05785 -9.86799,-12.67975 -16.85809,-11.68838 -3.21722,0.45629 -5.42755,1.54651 -8.09983,3.99517 -3.16361,2.89888 -4.87288,6.13524 -6.26838,11.86866 -0.95638,3.9293 -2.3231,5.04917 -6.1621,5.04917 -0.95635,0 -2.49035,-0.17098 -3.40888,-0.37996 -0.91854,-0.20897 -2.63491,-0.46095 -3.81416,-0.55995 -3.19503,-0.26822 -4.5481,0.54148 -5.52319,3.30518 -0.48824,1.38382 -3.84209,16.36754 -3.84209,17.16499 0,0.79994 1.03231,1.72027 2.57943,2.29962 0.69136,0.2589 2.13422,0.8825 3.20634,1.38577 l 1.94932,0.91504 -0.17212,1.36226 c -0.51858,4.10439 -0.52473,3.9744 0.23047,4.8719 0.48732,0.57914 1.1728,0.9743 2.2111,1.27462 2.94974,0.85318 3.74766,1.21749 4.42209,2.019 0.61042,0.72544 0.66494,0.9595 0.51082,2.19305 -0.21041,1.68408 0.25332,2.73972 1.55768,3.54585 1.09961,0.6796 1.74096,0.68413 3.6132,0.0255 1.8557,-0.65277 2.83133,-0.65608 3.88572,-0.0132 1.39851,0.85273 1.50298,1.31526 0.84191,3.72743 -0.54895,2.00309 -0.55795,2.17861 -0.15499,3.02363 0.71731,1.50422 3.28657,2.69227 7.20132,3.32996 0.7276,0.11852 3.52557,0.1788 6.21771,0.13394 3.77425,-0.0629 5.50049,-0.21184 7.54062,-0.65064 z m -6.86026,-38.54193 c -0.22868,-0.22867 -0.41578,-0.80941 -0.41578,-1.29052 0,-1.70139 -1.33782,-1.95318 -2.18039,-0.41037 -0.6502,1.19057 -1.17879,1.5875 -2.11405,1.5875 -1.78973,0 -3.80905,-1.72781 -5.10949,-4.37188 -1.8692,-3.80048 -1.78444,-9.78333 0.1386,-9.78333 0.52389,0 0.70292,0.19068 0.92619,0.98645 0.40726,1.45152 1.00548,1.96315 1.84708,1.57969 0.36917,-0.16821 0.67123,-0.48279 0.67123,-0.69907 0,-0.21628 0.21143,-0.5064 0.46985,-0.6447 0.66879,-0.35792 1.38223,0.11943 1.38223,0.92484 0,1.15733 0.45947,1.68925 1.45914,1.68925 0.79687,0 0.97918,-0.13295 1.45128,-1.05833 0.74518,-1.46068 1.63264,-1.4674 2.37209,-0.018 0.29192,0.57221 0.64078,1.10838 0.77525,1.19149 0.5006,0.30938 1.09054,-0.20129 1.39098,-1.20406 0.57013,-1.90291 1.46308,-2.02546 2.26842,-0.31131 0.80337,1.70997 1.99912,1.39391 2.59385,-0.68562 0.35003,-1.22391 0.92201,-1.31794 1.87501,-0.30822 0.78754,0.83439 1.76323,1.05193 2.13639,0.47632 0.11773,-0.18161 0.33867,-0.80612 0.49098,-1.38782 0.34401,-1.31376 1.0534,-1.54777 1.46744,-0.48405 0.17392,0.44679 0.24675,1.86299 0.18129,3.52498 -0.0924,2.34699 -0.21861,2.99518 -0.81303,4.17683 -1.54587,3.07305 -3.54594,5.28327 -5.30679,5.86441 -1.46296,0.48282 -2.05316,0.28092 -2.66932,-0.91312 -0.72875,-1.41223 -1.77508,-1.59942 -2.38181,-0.42613 -0.2266,0.4382 -0.412,1.01695 -0.412,1.28612 0,1.08424 -1.65025,1.553 -2.49464,0.70861 z m -7.24011,-16.15064 c -2.74835,-1.40055 -2.09664,-5.69966 0.92548,-6.10501 0.97936,-0.13136 1.09947,-0.0643 2.34111,1.30623 1.60601,1.77279 3.19836,4.37202 2.87021,4.68513 -0.13118,0.12517 -1.3696,0.30184 -2.75205,0.3926 -2.0619,0.13536 -2.67008,0.0852 -3.38475,-0.27895 z m 10.33006,-0.0245 c -0.32742,-0.0631 -0.59531,-0.26969 -0.59531,-0.45918 0,-1.05232 3.93742,-5.96867 4.7802,-5.96867 0.65376,0 2.06136,0.79476 2.58371,1.45882 1.0991,1.39729 0.56048,3.94474 -1.00525,4.75441 -0.74237,0.38389 -4.21341,0.51316 -5.76335,0.21462 z"
       id="path877" />
    <g
       inkscape:label="Edge.Cuts"
       id="g1588"
       transform="translate(-48.699257,-47.093251)">
      <path
         style="display:inline;fill:none;stroke:#000000;stroke-width:0.5;stroke-miterlimit:4;stroke-dasharray:none;stroke-opacity:1"
         d="m 92.5344,132.589 -0.7181,-0.126 -0.6858,-0.138 -0.6529,-0.151 -0.619,-0.163 -0.5846,-0.174 -0.5493,-0.185 -0.5134,-0.196 -0.4766,-0.207 -0.4391,-0.217 -0.4009,-0.226 -0.362,-0.236 -0.3223,-0.246 -0.2818,-0.254 -0.2407,-0.262 -0.1987,-0.271 -0.1561,-0.278 -0.1315,-0.29 -0.0915,-0.257 -0.0498,-0.253 -0.0067,-0.277 0.038,-0.332 0.084,-0.416 0.3125,-1.198 0.211,-0.818 0.133,-0.663 0.0353,-0.281 0.0136,-0.253 -0.0091,-0.228 -0.0324,-0.206 -0.0566,-0.188 -0.0814,-0.173 -0.1072,-0.161 -0.1336,-0.154 -0.1609,-0.149 -0.1888,-0.148 -0.4648,-0.306 -0.3936,-0.211 -0.1975,-0.082 -0.1999,-0.068 -0.2037,-0.052 -0.2088,-0.037 -0.2155,-0.022 -0.2234,-0.007 -0.4764,0.032 -0.5252,0.092 -0.5852,0.154 -0.6565,0.214 -0.6477,0.216 -0.5521,0.154 -0.4763,0.091 -0.4203,0.028 -0.1953,-0.009 -0.1887,-0.025 -0.1847,-0.04 -0.183,-0.057 -0.371,-0.16 -0.3941,-0.223 -0.2348,-0.154 -0.2153,-0.161 -0.1961,-0.167 -0.1771,-0.175 -0.1584,-0.184 -0.1399,-0.191 -0.1216,-0.201 -0.1037,-0.211 -0.0859,-0.221 -0.0684,-0.232 -0.0512,-0.243 -0.0341,-0.255 -0.0174,-0.268 -8e-4,-0.28 0.047,-0.603 0.0473,-0.419 0.0237,-0.342 -0.004,-0.284 -0.0357,-0.242 -0.0716,-0.219 -0.1115,-0.212 -0.1555,-0.223 -0.2035,-0.252 -0.2627,-0.282 -0.298,-0.252 -0.3571,-0.232 -0.44,-0.224 -0.5467,-0.227 -0.6771,-0.239 -0.8313,-0.264 -1.0092,-0.299 -0.3731,-0.117 -0.3419,-0.128 -0.3124,-0.138 -0.2848,-0.15 -0.2589,-0.163 -0.235,-0.177 -0.2127,-0.193 -0.1923,-0.209 -0.248,-0.298 -0.1796,-0.264 -0.065,-0.139 -0.049,-0.152 -0.0333,-0.175 -0.018,-0.205 0.0083,-0.53 0.0651,-0.742 0.289,-2.367 0.1721,-1.362 -1.9493,-0.915 -1.7459,-0.784 -0.8185,-0.347 -0.6419,-0.255 -0.5551,-0.232 -0.5007,-0.259 -0.4403,-0.28 -0.3738,-0.296 -0.3014,-0.306 -0.1215,-0.155 -0.1012,-0.156 -0.08,-0.156 -0.0581,-0.155 -0.0354,-0.153 -0.012,-0.151 0.0378,-0.309 0.1073,-0.601 0.3866,-1.9142 0.5553,-2.5928 0.651,-2.9459 0.6739,-2.9734 0.6239,-2.6753 0.5011,-2.0515 0.1816,-0.6901 0.1236,-0.4121 0.1876,-0.4955 0.1987,-0.451 0.2117,-0.4078 0.2271,-0.3658 0.2445,-0.3251 0.2641,-0.2858 0.2858,-0.2477 0.3096,-0.2109 0.3357,-0.1753 0.3639,-0.1411 0.3941,-0.1081 0.4266,-0.0764 0.4612,-0.0461 0.498,-0.0169 0.5368,0.0109 0.5778,0.0374 0.9643,0.0999 1.0406,0.1389 0.9916,0.1595 0.8177,0.1617 0.7856,0.1475 0.9046,0.1208 0.9117,0.0817 0.807,0.0299 0.6913,-0.0135 0.6364,-0.0423 0.5845,-0.0734 0.5357,-0.1071 0.4897,-0.1433 0.447,-0.1819 0.4071,-0.223 0.3703,-0.2666 0.3365,-0.3126 0.3058,-0.3611 0.278,-0.4121 0.2533,-0.4656 0.2316,-0.5216 0.2129,-0.5799 0.1973,-0.6409 0.1847,-0.7042 0.2656,-1.0463 0.2746,-0.9909 0.2853,-0.9388 0.2977,-0.8896 0.3118,-0.8439 0.3274,-0.8011 0.3448,-0.7615 0.3639,-0.7252 0.3846,-0.692 0.407,-0.6619 0.431,-0.635 0.4568,-0.6113 0.4842,-0.5907 0.5132,-0.5734 0.544,-0.5591 0.5764,-0.548 0.496,-0.4434 0.4874,-0.4126 0.4808,-0.3829 0.4764,-0.3542 0.4742,-0.3266 0.4741,-0.3002 0.4762,-0.2746 0.4805,-0.2502 0.4868,-0.2269 0.4954,-0.2046 0.5061,-0.1834 0.5189,-0.1632 0.5339,-0.1441 0.551,-0.126 0.5704,-0.1091 0.5918,-0.0932 0.6542,-0.0765 0.6518,-0.0441 0.6488,-0.012 0.6454,0.0197 0.641,0.0511 0.636,0.0819 0.631,0.1124 0.625,0.1425 0.618,0.1722 0.611,0.2015 0.604,0.2304 0.595,0.2589 0.587,0.2871 0.577,0.3147 0.568,0.342 0.556,0.369 0.546,0.3954 0.534,0.4216 0.522,0.4473 0.509,0.4726 0.495,0.4975 0.482,0.5221 0.467,0.5461 0.452,0.5699 0.436,0.5932 0.42,0.6161 0.403,0.6387 0.386,0.6607 0.368,0.6825 0.349,0.7039 0.33,0.7247 0.31,0.7453 0.554,1.3578 0.513,1.1783 0.483,1.0158 0.462,0.8706 0.45,0.7425 0.224,0.3286 0.225,0.3029 0.227,0.2795 0.23,0.2582 0.234,0.2389 0.241,0.222 0.637,0.5349 0.292,0.2192 0.282,0.1885 0.277,0.1591 0.279,0.1309 0.285,0.104 0.297,0.078 0.315,0.0535 0.338,0.0301 0.367,0.0079 0.401,-0.0132 0.929,-0.0845 1.133,-0.1542 1.13,-0.1486 0.965,-0.0818 0.427,-0.0147 0.395,0.0031 0.363,0.0215 0.335,0.0402 0.31,0.0593 0.286,0.0788 0.267,0.0987 0.248,0.119 0.233,0.1398 0.221,0.1608 0.21,0.1824 0.203,0.2042 0.435,0.4903 0.187,0.2441 0.174,0.2652 0.164,0.3027 0.161,0.3566 0.162,0.4267 0.169,0.5132 0.179,0.6162 0.197,0.7354 0.462,1.894 0.589,2.5674 0.756,3.3715 0.503,2.2785 0.385,1.806 0.275,1.3984 0.175,1.055 0.052,0.42 0.03,0.358 0.01,0.304 -0.01,0.26 -0.028,0.222 -0.045,0.194 -0.062,0.172 -0.077,0.16 -0.063,0.088 -0.1,0.098 -0.313,0.224 -0.459,0.261 -0.605,0.298 -0.748,0.333 -0.889,0.369 -1.029,0.402 -1.167,0.435 -0.566,0.233 -0.529,0.268 -0.481,0.292 -0.421,0.308 -0.348,0.313 -0.143,0.156 -0.12,0.153 -0.097,0.15 -0.07,0.145 -0.044,0.14 -0.015,0.132 0.017,0.124 0.046,0.16 0.171,0.397 0.252,0.457 0.308,0.466 0.307,0.451 0.227,0.403 0.083,0.188 0.064,0.181 0.045,0.176 0.025,0.173 0.006,0.171 -0.013,0.172 -0.032,0.174 -0.051,0.178 -0.156,0.375 -0.23,0.412 -0.25,0.362 -0.138,0.164 -0.149,0.154 -0.162,0.145 -0.177,0.136 -0.194,0.129 -0.213,0.123 -0.488,0.232 -0.585,0.219 -0.697,0.215 -0.823,0.218 -0.471,0.125 -0.42,0.131 -0.376,0.139 -0.337,0.149 -0.304,0.163 -0.277,0.179 -0.255,0.199 -0.24,0.22 -0.272,0.278 -0.207,0.239 -0.149,0.229 -0.099,0.247 -0.058,0.291 -0.026,0.364 v 0.464 l 0.017,0.591 0.011,0.959 -0.019,0.357 -0.04,0.294 -0.062,0.246 -0.088,0.209 -0.116,0.188 -0.146,0.18 -0.152,0.156 -0.147,0.123 -0.149,0.092 -0.158,0.062 -0.173,0.035 -0.194,0.01 -0.224,-0.014 -0.258,-0.035 -1.7,-0.261 -0.594,-0.072 -0.466,-0.034 -0.371,0.004 -0.308,0.038 -0.28,0.073 -0.282,0.106 -0.176,0.085 -0.183,0.109 -0.363,0.272 -0.326,0.316 -0.135,0.163 -0.11,0.16 -0.145,0.25 -0.103,0.22 -0.059,0.221 -0.015,0.249 0.03,0.307 0.077,0.393 0.292,1.159 0.14,0.555 0.108,0.506 0.075,0.462 0.041,0.422 0.004,0.386 -0.036,0.353 -0.075,0.326 -0.119,0.302 -0.164,0.282 -0.21,0.267 -0.259,0.256 -0.31,0.249 -0.363,0.245 -0.418,0.247 -0.475,0.252 -0.533,0.262 -0.521,0.234 -0.54,0.219 -0.563,0.202 -0.586,0.187 -0.611,0.171 -0.639,0.156 -0.668,0.142 -0.7,0.127 -0.732,0.113 -0.768,0.099 -0.804,0.085 -0.843,0.073 -0.884,0.06 -0.926,0.047 -1.9888,0.058 -2.005,0.015 -1.8406,-0.021 -1.4722,-0.051 -0.5343,-0.035 -0.3656,-0.042 h -10e-5"
         id="path897"
         sodipodi:nodetypes="csssssssssscsssssssssssssssssssssssssssssscc" />
    </g>
    <g
       inkscape:label="F.SilkS"
       id="g1590"
       transform="translate(-48.699257,-47.093251)">
      <path
         style="display:inline;fill:#000000;stroke-width:1"
         d="m 91.727054,132.05462 c -2.05685,-0.30283 -4.3665,-1.21906 -5.43257,-2.15508 -0.9826,-0.86273 -1.17054,-1.87192 -0.61488,-3.30168 0.48828,-1.2564 2.08008,-10.61791 2.60103,-15.29691 0.38579,-3.46508 0.64708,-7.96218 0.45221,-7.783 -0.0924,0.085 -0.39205,1.39466 -0.66584,2.91042 -0.80167,4.43823 -3.21733,10.94266 -5.01722,13.50944 -1.77801,2.53558 -4.70367,3.3903 -6.34777,1.85447 -0.44362,-0.4144 -0.8804,-1.0476 -0.97063,-1.4071 -0.10073,-0.40135 0.39447,-2.89344 1.28297,-6.45644 1.23707,-4.96084 2.05941,-9.12259 2.64965,-13.40956 0.187,-1.358192 -0.26719,-1.262032 -0.49823,0.10548 -0.30869,1.82711 -1.96408,6.59895 -2.92351,8.42733 -0.49635,0.94589 -1.5421,2.55323 -2.32389,3.57188 -1.3856,1.80538 -1.44946,1.85077 -2.53259,1.80029 -1.53236,-0.0714 -2.72824,-0.82689 -3.10368,-1.96064 -0.35334,-1.06701 -0.27445,-1.51055 1.78861,-10.0549 1.37595,-5.698662 1.89093,-8.353262 1.55015,-7.990782 -0.11084,0.1179 -0.63615,1.27247 -1.16736,2.56572 -0.85383,2.07869 -1.83646,4.056252 -3.65701,7.359822 -0.29702,0.53897 -0.68014,1.0337 -0.85139,1.09941 -0.39652,0.15216 -3.74571,-1.25207 -4.40126,-1.84533 -0.80758,-0.73085 -0.83567,-0.5495 1.99266,-12.864812 1.46205,-6.36619 1.86787,-7.24584 3.69497,-8.00925 0.89078,-0.37219 1.27488,-0.35767 4.73539,0.179 6.59676,1.02306 9.42664,0.55511 10.69737,-1.76892 0.31976,-0.58482 0.94632,-2.48836 1.39234,-4.23009 1.16564,-4.55181 2.50422,-7.09669 5.15138,-9.79373 3.07526,-3.13321 6.29768,-4.60277 10.12592,-4.61787 3.953406,-0.0156 6.925366,1.27444 10.024306,4.35121 2.33549,2.31878 3.58194,4.30428 5.14925,8.20238 1.87264,4.6575 2.91794,6.04416 5.41961,7.18946 1.34973,0.61793 1.41581,0.62256 3.28133,0.23014 2.52881,-0.53195 4.63579,-0.5154 5.58253,0.0439 0.41372,0.24439 1.04625,0.98853 1.40564,1.65365 0.61236,1.13331 0.97763,2.53783 2.82602,10.86659 0.40369,1.81901 0.93967,4.18112 1.19106,5.249132 0.44599,1.89471 0.44439,1.95891 -0.0661,2.64583 -0.37448,0.50391 -1.32851,0.99742 -3.35671,1.73637 l -2.83354,1.03237 -0.69415,-0.51826 c -1.09874,-0.82032 -2.33238,-3.20646 -4.08251,-7.896482 l -0.49367,-1.32291 0.12392,1.19823 c 0.0682,0.65903 0.56451,2.62356 1.10301,4.365632 0.53851,1.74206 1.26112,4.11173 1.60581,5.26593 0.3447,1.1542 0.92202,2.48571 1.28295,2.95891 1.3935,1.82697 0.38304,3.74495 -2.27307,4.31458 -0.73155,0.15689 -1.44353,0.28526 -1.58219,0.28526 -0.43418,0 -2.64042,-3.20784 -3.82143,-5.55628 -0.62204,-1.23695 -1.51466,-3.49913 -1.98361,-5.02709 -0.46894,-1.52795 -1.0181,-3.25434 -1.22036,-3.836422 l -0.36774,-1.05834 0.15305,1.587502 c 0.22948,2.38037 1.57681,8.81408 2.65959,12.7 2.02474,7.26648 1.79115,8.8798 -1.14103,7.88071 -2.09443,-0.71365 -4.05364,-3.51814 -5.52983,-7.91562 -0.73969,-2.2035 -1.95872,-7.71993 -1.96214,-8.87916 -10e-4,-0.39159 -0.13879,-0.79647 -0.30586,-0.89972 -0.22536,-0.13928 -0.25663,0.48831 -0.12118,2.43178 0.42489,6.09616 1.18561,10.88932 2.8303,17.83305 0.32744,1.38245 0.6048,3.10168 0.61635,3.8205 0.0199,1.2375 -0.0393,1.35306 -1.11313,2.17448 -1.27688,0.97673 -3.86111,1.8271 -7.19931,2.36901 -2.44653,0.39717 -10.243766,0.45026 -12.714006,0.0866 z m 9.971696,-38.124262 c 0.16573,-0.13211 0.43356,-0.76532 0.59517,-1.40712 0.16161,-0.64181 0.4105,-1.23903 0.55309,-1.32715 0.35937,-0.2221 1.32853,0.33516 1.32853,0.76391 0,0.19353 0.25474,0.67573 0.56609,1.07154 0.49169,0.62509 0.68999,0.69641 1.50904,0.54276 2.2143,-0.41541 4.08486,-2.00821 5.92845,-5.04814 1.58605,-2.61527 2.17238,-5.93234 1.53458,-8.68171 -0.50815,-2.19049 -1.74654,-2.27874 -2.26212,-0.16121 -0.40821,1.67659 -0.96657,1.90847 -2.05506,0.85346 -0.4843,-0.4694 -1.13858,-0.85346 -1.45395,-0.85346 -0.61653,0 -1.1212,0.69823 -1.1212,1.55121 0,0.58479 -0.65534,1.35921 -1.15022,1.35921 -0.17527,0 -0.55372,-0.50602 -0.841,-1.12448 -0.44451,-0.95696 -0.64056,-1.12448 -1.31607,-1.12448 -0.68627,0 -0.87505,0.17017 -1.39416,1.25677 -0.33023,0.69123 -0.7116,1.25677 -0.84748,1.25677 -0.13589,0 -0.45011,-0.42786 -0.69826,-0.9508 -0.4774,-1.00605 -1.389566,-1.60246 -2.058346,-1.34583 -0.22099,0.0848 -0.65145,0.64355 -0.95659,1.24166 -0.46906,0.91944 -0.66511,1.07475 -1.26872,1.00508 -0.58821,-0.0679 -0.76053,-0.26877 -0.97852,-1.14073 -0.35926,-1.43705 -0.58135,-1.71979 -1.35084,-1.71979 -0.45343,0 -0.79834,0.2456 -1.10886,0.7896 -0.2479,0.43429 -0.5961,0.84595 -0.77379,0.9148 -0.46672,0.18086 -1.13214,-0.58152 -1.13214,-1.29712 0,-0.33728 -0.2309,-0.89432 -0.51312,-1.23787 -0.48457,-0.58987 -0.55413,-0.60218 -1.25009,-0.22135 -1.95747,1.07113 -1.80184,7.3975 0.26891,10.93097 1.59686,2.72484 3.13988,3.8793 5.18495,3.8793 1.14901,0 2.18458,-0.77301 2.54132,-1.89701 0.24798,-0.7813 1.3006,-0.53768 1.33735,0.30951 0.0158,0.3638 0.0455,0.87556 0.0661,1.13725 0.075,0.95282 2.192816,1.41108 3.116916,0.67445 z m -5.238206,-16.00957 c 1.42179,-0.11066 2.2534,-0.293 2.33765,-0.51255 0.17208,-0.44844 -2.05429,-3.90433 -3.43485,-5.33177 -0.94111,-0.97305 -1.23774,-1.12448 -2.20279,-1.12448 -2.7202,0 -4.2281,3.50334 -2.4787,5.75881 1.04355,1.34544 1.85521,1.51539 5.77869,1.20999 z m 11.984656,-0.50529 c 1.04554,-0.54067 1.92332,-2.44343 1.67565,-3.63229 -0.24462,-1.17421 -0.80007,-1.97315 -1.7925,-2.57828 -1.26148,-0.76917 -2.14262,-0.65898 -3.33347,0.41688 -1.19401,1.07871 -3.72976,4.78389 -3.72976,5.44984 0,0.64595 0.33048,0.71531 3.51887,0.73862 2.11269,0.0154 3.06691,-0.0874 3.66121,-0.39477 z"
         id="path1547" />
    </g>
    <path
       style="fill:#000000;stroke-width:1"
       d="m 176.96689,54.32389 c -0.32742,-0.0631 -0.59531,-0.26969 -0.59531,-0.45918 0,-1.05232 3.93742,-5.96867 4.7802,-5.96867 0.65376,0 2.06136,0.79476 2.58371,1.45882 1.0991,1.39729 0.56048,3.94474 -1.00525,4.75441 -0.74237,0.38389 -4.21341,0.51316 -5.76335,0.21462 z"
       id="path949" />
    <path
       style="fill:#000000;stroke-width:1"
       d="m 166.63683,54.34839 c -2.74835,-1.40055 -2.09664,-5.69966 0.92548,-6.10501 0.97936,-0.13136 1.09947,-0.0643 2.34111,1.30623 1.60601,1.77279 3.19836,4.37202 2.87021,4.68513 -0.13118,0.12517 -1.3696,0.30184 -2.75205,0.3926 -2.0619,0.13536 -2.67008,0.0852 -3.38475,-0.27895 z"
       id="path947" />
    <path
       style="fill:#000000;stroke-width:1"
       d="m 173.87694,70.49903 c -0.22868,-0.22867 -0.41578,-0.80941 -0.41578,-1.29052 0,-1.70139 -1.33782,-1.95318 -2.18039,-0.41037 -0.6502,1.19057 -1.17879,1.5875 -2.11405,1.5875 -1.78973,0 -3.80905,-1.72781 -5.10949,-4.37188 -1.8692,-3.80048 -1.78444,-9.78333 0.1386,-9.78333 0.52389,0 0.70292,0.19068 0.92619,0.98645 0.40726,1.45152 1.00548,1.96315 1.84708,1.57969 0.36917,-0.16821 0.67123,-0.48279 0.67123,-0.69907 0,-0.21628 0.21143,-0.5064 0.46985,-0.6447 0.66879,-0.35792 1.38223,0.11943 1.38223,0.92484 0,1.15733 0.45947,1.68925 1.45914,1.68925 0.79687,0 0.97918,-0.13295 1.45128,-1.05833 0.74518,-1.46068 1.63264,-1.4674 2.37209,-0.018 0.29192,0.57221 0.64078,1.10838 0.77525,1.19149 0.5006,0.30938 1.09054,-0.20129 1.39098,-1.20406 0.57013,-1.90291 1.46308,-2.02546 2.26842,-0.31131 0.80337,1.70997 1.99912,1.39391 2.59385,-0.68562 0.35003,-1.22391 0.92201,-1.31794 1.87501,-0.30822 0.78754,0.83439 1.76323,1.05193 2.13639,0.47632 0.11773,-0.18161 0.33867,-0.80612 0.49098,-1.38782 0.34401,-1.31376 1.0534,-1.54777 1.46744,-0.48405 0.17392,0.44679 0.24675,1.86299 0.18129,3.52498 -0.0924,2.34699 -0.21861,2.99518 -0.81303,4.17683 -1.54587,3.07305 -3.54594,5.28327 -5.30679,5.86441 -1.46296,0.48282 -2.05316,0.28092 -2.66932,-0.91312 -0.72875,-1.41223 -1.77508,-1.59942 -2.38181,-0.42613 -0.2266,0.4382 -0.412,1.01695 -0.412,1.28612 0,1.08424 -1.65025,1.553 -2.49464,0.70861 z"
       id="path945" />
    <path
       id="path943"
       style="fill:#000000;stroke-width:1"
       d="m 123.26626,84.28347 c -0.64704,-0.0039 -1.2996,0.03987 -1.95492,0.13281 -3.21722,0.45629 -5.42748,1.546445 -8.09977,3.995105 -3.16361,2.898871 -4.87285,6.135102 -6.26835,11.868515 -0.95638,3.9293 -2.3229,5.04931 -6.1619,5.04931 -0.956349,0 -2.490562,-0.17084 -3.409092,-0.37982 -0.918541,-0.20897 -2.634988,-0.46118 -3.814239,-0.56018 -3.195029,-0.26822 -4.548087,0.54153 -5.523177,3.30523 -0.488241,1.38382 -3.842141,16.36739 -3.842141,17.16484 0,0.79994 1.032565,1.72025 2.579687,2.2996 0.691359,0.2589 2.134402,0.88269 3.206523,1.38596 l 1.949233,0.91519 -0.172083,1.3622 c -0.518578,4.10438 -0.524721,3.97455 0.230479,4.87205 0.48732,0.57914 1.172416,0.97402 2.210718,1.27434 2.949739,0.85318 3.748037,1.21749 4.422468,2.019 0.61042,0.72544 0.664684,0.9596 0.510564,2.19315 -0.21041,1.68407 0.253166,2.7399 1.55753,3.54603 1.09961,0.6796 1.74097,0.68395 3.61321,0.0253 1.8557,-0.65277 2.83168,-0.65631 3.88607,-0.0134 1.39851,0.85273 1.50288,1.31525 0.84181,3.72742 -0.54895,2.00309 -0.55799,2.17908 -0.15503,3.0241 0.71731,1.50422 3.28637,2.69183 7.20112,3.32952 0.7276,0.11852 3.52556,0.17922 6.2177,0.13436 3.77425,-0.0629 5.5005,-0.21181 7.54063,-0.65061 2.77732,-0.59736 5.41434,-1.6856 6.41304,-2.64635 0.92109,-0.8861 1.01377,-1.78879 0.41497,-4.04833 -0.51784,-1.95398 -0.52133,-2.06897 -0.0775,-2.7988 0.25461,-0.41868 0.83623,-0.91588 1.29243,-1.10484 0.78673,-0.32587 1.1915,-0.31111 4.0013,0.14573 0.74262,0.12074 1.03757,0.0335 1.4552,-0.42943 0.4329,-0.47984 0.51275,-0.90193 0.46045,-2.43241 -0.0606,-1.77307 -0.0268,-1.88778 0.79375,-2.70268 0.62403,-0.6197 1.35234,-0.97481 2.67941,-1.30586 2.3766,-0.59287 3.24667,-1.06362 3.87677,-2.09703 0.7073,-1.16001 0.65181,-1.77405 -0.27544,-3.05408 -0.43655,-0.60265 -0.79375,-1.32415 -0.79375,-1.60352 0,-0.68413 1.2868,-1.72385 2.83394,-2.28978 3.2937,-1.2048 5.13607,-2.06458 5.37332,-2.50786 0.446,-0.83338 0.30176,-1.86456 -1.20872,-8.62841 -2.27319,-10.17917 -2.33676,-10.38494 -3.63492,-11.78327 -1.06618,-1.14844 -2.34331,-1.34517 -5.59242,-0.86247 -3.33533,0.49551 -4.00975,0.35045 -5.83272,-1.25419 -1.29755,-1.14215 -2.30274,-2.920035 -3.84266,-6.795443 -2.90167,-7.302432 -8.64876,-11.78295 -14.90347,-11.820997 z m -0.39016,0.439251 c 3.95341,-0.0156 6.92525,1.274392 10.02419,4.351155 2.33549,2.318782 3.58225,4.303981 5.14956,8.202079 1.87264,4.657495 2.91764,6.044445 5.41931,7.189735 1.34973,0.61793 1.41593,0.62238 3.28145,0.22996 2.52881,-0.53195 4.63587,-0.51537 5.58261,0.0439 0.41372,0.24439 1.04621,0.98853 1.4056,1.65365 0.61236,1.1333 0.97779,2.53776 2.82618,10.86652 0.40369,1.81901 0.93923,4.18128 1.19063,5.24929 0.44599,1.89471 0.44486,1.95891 -0.0656,2.64583 -0.37448,0.50391 -1.3287,0.99738 -3.35691,1.73633 l -2.83341,1.03249 -0.69453,-0.51831 c -1.09874,-0.82032 -2.33231,-3.20666 -4.08244,-7.89668 l -0.49351,-1.32291 0.12402,1.19837 c 0.0682,0.65903 0.56428,2.62356 1.10277,4.36563 0.53852,1.74206 1.26142,4.11163 1.60611,5.26583 0.3447,1.1542 0.92168,2.48579 1.28261,2.95899 1.3935,1.82697 0.38338,3.74483 -2.27273,4.31447 -0.73155,0.15689 -1.44367,0.28525 -1.58233,0.28525 -0.43418,0 -2.64047,-3.20781 -3.82148,-5.55625 -0.62204,-1.23695 -1.51439,-3.49912 -1.98334,-5.02708 -0.46894,-1.52795 -1.01834,-3.25438 -1.22059,-3.83646 l -0.36794,-1.05834 0.15348,1.5875 c 0.22948,2.38037 1.57649,8.81408 2.65927,12.7 2.02474,7.26648 1.79116,8.87975 -1.14102,7.88066 -2.09443,-0.71365 -4.0537,-3.5178 -5.52989,-7.91528 -0.73969,-2.2035 -1.95874,-7.72033 -1.96216,-8.87956 -0.001,-0.39159 -0.13885,-0.79644 -0.30592,-0.89969 -0.22536,-0.13928 -0.25637,0.48843 -0.12093,2.4319 0.4249,6.09615 1.18563,10.88929 2.83032,17.83302 0.32744,1.38245 0.60495,3.10161 0.6165,3.82043 0.0199,1.2375 -0.0393,1.35313 -1.11311,2.17455 -1.27688,0.97673 -3.86136,1.82693 -7.19956,2.36885 -2.44653,0.39716 -10.24371,0.45047 -12.71395,0.0868 -2.05685,-0.30283 -4.36668,-1.2194 -5.43275,-2.15542 -0.9826,-0.86273 -1.17061,-1.87185 -0.61495,-3.30161 0.48828,-1.2564 2.08045,-10.61774 2.60139,-15.29674 0.3858,-3.46508 0.64705,-7.96217 0.45218,-7.78299 -0.0924,0.085 -0.39232,1.39466 -0.66612,2.91042 -0.80166,4.43823 -3.21737,10.94247 -5.01726,13.50925 -1.77801,2.53558 -4.70332,3.3905 -6.34742,1.85467 -0.443617,-0.4144 -0.880767,-1.04765 -0.970998,-1.40715 -0.100729,-0.40135 0.394626,-2.89345 1.283128,-6.45645 1.23707,-4.96084 2.05973,-9.12255 2.64997,-13.40952 0.187,-1.35819 -0.26764,-1.26209 -0.49868,0.10542 -0.30869,1.82711 -1.96391,6.59901 -2.923338,8.42739 -0.496348,0.94589 -1.542098,2.55323 -2.323889,3.57188 -1.385599,1.80538 -1.449533,1.85088 -2.53266,1.8004 -1.532361,-0.0714 -2.728248,-0.82685 -3.103687,-1.9606 -0.35334,-1.06701 -0.274539,-1.51085 1.78852,-10.0552 1.37595,-5.69866 1.891072,-8.35321 1.550294,-7.99073 -0.110842,0.1179 -0.636161,1.27249 -1.16737,2.56574 -0.853832,2.07869 -1.836592,4.05619 -3.657143,7.35975 -0.297018,0.53898 -0.67986,1.03397 -0.851109,1.09968 -0.39652,0.15216 -3.745732,-1.2521 -4.401283,-1.84536 -0.807579,-0.73085 -0.835686,-0.54954 1.992644,-12.86485 1.46205,-6.36619 1.867765,-7.24592 3.694864,-8.00933 0.89078,-0.37219 1.275119,-0.35787 4.735628,0.1788 6.596759,1.02306 9.426289,0.55514 10.697019,-1.76889 0.31976,-0.58482 0.94666,-2.48798 1.39268,-4.229705 1.16564,-4.551808 2.50395,-7.096678 5.15111,-9.793717 3.07526,-3.133206 6.29776,-4.602707 10.126,-4.617807 z m 7.49928,8.215516 c -0.59667,0.009 -1.16827,0.30899 -1.83813,0.91416 -1.194,1.07871 -3.73,4.783848 -3.73,5.449798 0,0.64595 0.33078,0.715655 3.51916,0.738965 2.11269,0.0154 3.06698,-0.0874 3.66128,-0.394805 1.04554,-0.54067 1.92302,-2.443478 1.67535,-3.632338 -0.24462,-1.17421 -0.80023,-1.97352 -1.79266,-2.57865 -0.55189,-0.33651 -1.03091,-0.50447 -1.495,-0.49713 z m -13.67255,0.24443 c -2.7202,0 -4.22831,3.50335 -2.47891,5.758818 1.04355,1.345435 1.85549,1.515145 5.77897,1.209745 1.42179,-0.11066 2.25308,-0.292555 2.33733,-0.512115 0.17207,-0.44843 -2.05386,-3.904528 -3.43442,-5.331968 -0.94111,-0.97305 -1.23791,-1.12448 -2.20297,-1.12448 z m 19.42466,7.196453 c -0.43757,-0.0312 -0.87599,0.47603 -1.13378,1.53479 -0.40821,1.67659 -0.96669,1.90871 -2.05518,0.8537 -0.48429,-0.4694 -1.13828,-0.8537 -1.45365,-0.8537 -0.61653,0 -1.12138,0.69835 -1.12138,1.55133 0,0.58479 -0.65544,1.35909 -1.15032,1.35909 -0.17527,0 -0.5535,-0.50602 -0.84077,-1.12448 -0.44452,-0.95696 -0.64069,-1.12448 -1.3162,-1.12448 -0.68627,0 -0.87512,0.17017 -1.39423,1.25677 -0.33023,0.69123 -0.71162,1.25677 -0.8475,1.25677 -0.13589,0 -0.45,-0.4279 -0.69815,-0.95084 -0.47739,-1.00605 -1.38949,-1.60229 -2.05827,-1.34566 -0.22099,0.0848 -0.65139,0.64368 -0.95653,1.24179 -0.46906,0.91944 -0.66504,1.07426 -1.26865,1.00459 -0.58821,-0.0679 -0.76077,-0.26854 -0.97876,-1.1405 -0.35926,-1.43705 -0.58133,-1.71979 -1.35082,-1.71979 -0.45343,0 -0.79845,0.24561 -1.10897,0.78961 -0.2479,0.43429 -0.59591,0.84583 -0.7736,0.91468 -0.46672,0.18085 -1.13223,-0.58148 -1.13223,-1.29708 0,-0.33728 -0.23093,-0.89411 -0.51315,-1.23765 -0.48457,-0.58987 -0.55409,-0.60253 -1.25005,-0.2217 -1.95747,1.07113 -1.80152,7.39765 0.26923,10.93112 1.59686,2.72484 3.13963,3.87935 5.1847,3.87935 1.14901,0 2.18471,-0.77304 2.54145,-1.89704 0.24798,-0.7813 1.30063,-0.53765 1.33738,0.30954 0.0158,0.3638 0.0456,0.87571 0.0662,1.1374 0.075,0.95282 2.19251,1.411 3.11661,0.67438 0.16573,-0.13212 0.4337,-0.76535 0.59531,-1.40715 0.16161,-0.64181 0.41035,-1.23894 0.55294,-1.32706 0.35937,-0.2221 1.3286,0.33503 1.3286,0.76378 0,0.19353 0.25502,0.67596 0.56637,1.07177 0.49169,0.62509 0.68991,0.69625 1.50895,0.5426 2.2143,-0.41541 4.08473,-2.00834 5.92832,-5.04827 1.58605,-2.61527 2.17259,-5.93227 1.53479,-8.68164 -0.25407,-1.09524 -0.69104,-1.66484 -1.12861,-1.69602 z" />
  </g>
</svg>
