<?xml version="1.0" encoding="UTF-8" standalone="no"?>
<!-- Created with Inkscape (http://www.inkscape.org/) -->

<svg
   inkscape:version="1.1 (c4e8f9ed74, 2021-05-24)"
   sodipodi:docname="seegeist.svg"
   id="svg5"
   version="1.1"
   viewBox="0 0 49.0 49.0"
   height="49.0mm"
   width="49.0mm"
   xmlns:inkscape="http://www.inkscape.org/namespaces/inkscape"
   xmlns:sodipodi="http://sodipodi.sourceforge.net/DTD/sodipodi-0.dtd"
   xmlns="http://www.w3.org/2000/svg"
   xmlns:svg="http://www.w3.org/2000/svg">
  <sodipodi:namedview
     id="namedview7"
     pagecolor="#ffffff"
     bordercolor="#666666"
     borderopacity="1.0"
     inkscape:pageshadow="2"
     inkscape:pageopacity="0.0"
     inkscape:pagecheckerboard="0"
     inkscape:document-units="mm"
     showgrid="false"
     inkscape:zoom="2.3518518"
     inkscape:cx="150.94489"
     inkscape:cy="62.503938"
     inkscape:window-width="1920"
     inkscape:window-height="1051"
     inkscape:window-x="0"
     inkscape:window-y="0"
     inkscape:window-maximized="1"
     inkscape:current-layer="g846"
     showguides="false" />
  <defs
     id="defs2" />
  <g
     inkscape:label="[fixed] BG"
     inkscape:groupmode="layer"
     sodipodi:insensitive="true"
     id="g832"
     style="display:inline">
    <rect
       x="0"
       y="0"
       width="49"
       height="49"
       style="fill:#ffffff;fill-opacity:1;stroke:none"
       id="rect830" />
  </g>
  <g
     inkscape:label="Edge.Cuts"
     inkscape:groupmode="layer"
     id="g834"
     style="display:inline">
    <path
       style="display:inline;fill:none;stroke:#000000;stroke-width:0.319811;stroke-miterlimit:4;stroke-dasharray:none;stroke-opacity:1"
       d="M 21.1278 47.0105 L 20.6685 46.9299 L 20.2299 46.8416 L 19.8123 46.7451 L 19.4163 46.6408 L 19.0424 46.5295 L 18.6911 46.4112 L 18.3627 46.2858 L 18.0578 46.1534 L 17.777 46.0146 L 17.5206 45.8701 L 17.289 45.7191 L 17.0829 45.5618 L 16.9026 45.3993 L 16.7487 45.2317 L 16.6216 45.0584 L 16.5217 44.8806 L 16.4376 44.6951 L 16.3791 44.5307 L 16.3472 44.3689 L 16.3429 44.1917 L 16.3672 43.9793 L 16.421 43.7133 L 16.6209 42.947 L 16.7558 42.4238 L 16.8409 41.9997 L 16.8635 41.82 L 16.8722 41.6581 L 16.8664 41.5123 L 16.8456 41.3806 L 16.8094 41.2603 L 16.7574 41.1497 L 16.6888 41.0467 L 16.6034 40.9482 L 16.5004 40.8529 L 16.3797 40.7582 L 16.0824 40.5625 L 15.8306 40.4275 L 15.7043 40.3751 L 15.5764 40.3316 L 15.4462 40.2983 L 15.3126 40.2747 L 15.1748 40.2606 L 15.0319 40.2561 L 14.7272 40.2766 L 14.3912 40.3354 L 14.0169 40.4339 L 13.597 40.5708 L 13.1827 40.7089 L 12.8296 40.8074 L 12.5249 40.8656 L 12.2561 40.8836 L 12.1312 40.8778 L 12.0105 40.8618 L 11.8924 40.8362 L 11.7753 40.7997 L 11.538 40.6974 L 11.2859 40.5547 L 11.1357 40.4562 L 10.998 40.3533 L 10.8726 40.2465 L 10.7593 40.1345 L 10.658 40.0168 L 10.5685 39.8947 L 10.4908 39.7661 L 10.4244 39.6311 L 10.3695 39.4898 L 10.3257 39.3414 L 10.293 39.186 L 10.2712 39.0229 L 10.26 38.8514 L 10.2595 38.6723 L 10.2896 38.2867 L 10.3198 38.0187 L 10.335 37.7999 L 10.3324 37.6182 L 10.3096 37.4635 L 10.2638 37.3234 L 10.1925 37.1878 L 10.093 37.0451 L 9.96288 36.884 L 9.79485 36.7036 L 9.60425 36.5425 L 9.37584 36.3941 L 9.0944 36.2508 L 8.74472 36.1056 L 8.31163 35.9527 L 7.77992 35.7839 L 7.13441 35.5926 L 6.89577 35.5178 L 6.67708 35.4359 L 6.47726 35.3476 L 6.2951 35.2517 L 6.1295 35.1474 L 5.97919 35.0342 L 5.84314 34.9108 L 5.72014 34.7771 L 5.56152 34.5865 L 5.44664 34.4176 L 5.40507 34.3287 L 5.37373 34.2315 L 5.35243 34.1196 L 5.34091 33.9884 L 5.34622 33.6494 L 5.38786 33.1748 L 5.57271 31.6609 L 5.68279 30.7897 L 4.43598 30.2044 L 3.31926 29.703 L 2.79573 29.481 L 2.38516 29.3179 L 2.0301 29.1695 L 1.70985 29.0039 L 1.42822 28.8248 L 1.18913 28.6355 L 0.996348 28.4397 L 0.918634 28.3406 L 0.853904 28.2408 L 0.802734 28.141 L 0.765572 28.0419 L 0.74293 27.944 L 0.735255 27.8475 L 0.759432 27.6498 L 0.828064 27.2654 L 1.07534 26.041 L 1.43052 24.3826 L 1.84692 22.4984 L 2.27796 20.5965 L 2.67702 18.8853 L 2.99753 17.5731 L 3.11369 17.1317 L 3.19274 16.8682 L 3.31274 16.5512 L 3.43983 16.2628 L 3.57524 16.0019 L 3.7205 15.7679 L 3.87688 15.56 L 4.04581 15.3772 L 4.22861 15.2188 L 4.42664 15.0839 L 4.64136 14.9717 L 4.87412 14.8815 L 5.12619 14.8124 L 5.39905 14.7635 L 5.69405 14.734 L 6.01258 14.7232 L 6.35593 14.7302 L 6.7255 14.7541 L 7.34229 14.818 L 8.00788 14.9068 L 8.64213 15.0089 L 9.16515 15.1123 L 9.66763 15.2066 L 10.2462 15.2839 L 10.8294 15.3362 L 11.3455 15.3553 L 11.7877 15.3467 L 12.1948 15.3196 L 12.5686 15.2727 L 12.9113 15.2042 L 13.2245 15.1125 L 13.5104 14.9962 L 13.7708 14.8535 L 14.0076 14.683 L 14.2229 14.4831 L 14.4185 14.2521 L 14.5963 13.9885 L 14.7583 13.6907 L 14.9064 13.3571 L 15.0426 12.9862 L 15.1688 12.5762 L 15.2869 12.1258 L 15.4568 11.4566 L 15.6325 10.8228 L 15.8149 10.2223 L 16.0054 9.65326 L 16.2048 9.11348 L 16.4142 8.60108 L 16.6348 8.11401 L 16.8675 7.65016 L 17.1135 7.20754 L 17.3738 6.78417 L 17.6495 6.37801 L 17.9417 5.98701 L 18.2514 5.60919 L 18.5796 5.24243 L 18.9276 4.88482 L 19.2963 4.5343 L 19.6135 4.2507 L 19.9253 3.98679 L 20.2328 3.74188 L 20.5375 3.51532 L 20.8408 3.30642 L 21.1441 3.11441 L 21.4487 2.93877 L 21.756 2.77874 L 22.0674 2.63361 L 22.3842 2.50274 L 22.708 2.38543 L 23.0399 2.28105 L 23.3814 2.18888 L 23.7338 2.10828 L 24.0986 2.0385 L 24.4772 1.97889 L 24.8956 1.92996 L 25.3125 1.90175 L 25.7275 1.89407 L 26.1403 1.90667 L 26.5503 1.93936 L 26.9571 1.99174 L 27.3607 2.06363 L 27.7605 2.15478 L 28.1557 2.26492 L 28.5465 2.39381 L 28.9329 2.54118 L 29.3135 2.70677 L 29.6889 2.89041 L 30.058 3.0917 L 30.4213 3.31045 L 30.7769 3.54647 L 31.1261 3.79938 L 31.4677 4.06904 L 31.8016 4.35514 L 32.1272 4.65743 L 32.4438 4.97564 L 32.7521 5.30959 L 33.0508 5.65888 L 33.3399 6.0234 L 33.6187 6.40283 L 33.8874 6.7969 L 34.1452 7.20542 L 34.392 7.62802 L 34.6274 8.06456 L 34.8507 8.51479 L 35.0617 8.97833 L 35.26 9.45504 L 35.6144 10.3235 L 35.9425 11.0772 L 36.2514 11.7269 L 36.5469 12.2838 L 36.8348 12.7587 L 36.978 12.9689 L 37.122 13.1626 L 37.2671 13.3414 L 37.4143 13.5066 L 37.5639 13.6594 L 37.7181 13.8014 L 38.1255 14.1435 L 38.3123 14.2837 L 38.4927 14.4043 L 38.6698 14.506 L 38.8483 14.5898 L 39.0306 14.6563 L 39.2206 14.7062 L 39.422 14.7404 L 39.6382 14.7596 L 39.873 14.7647 L 40.1295 14.7563 L 40.7237 14.7023 L 41.4484 14.6037 L 42.1711 14.5086 L 42.7884 14.4563 L 43.0615 14.4469 L 43.3141 14.4489 L 43.5463 14.4626 L 43.7606 14.4883 L 43.9589 14.5263 L 44.1418 14.5767 L 44.3126 14.6398 L 44.4712 14.7159 L 44.6202 14.8053 L 44.7616 14.9082 L 44.8959 15.0249 L 45.0258 15.1555 L 45.304 15.4691 L 45.4236 15.6252 L 45.5349 15.7948 L 45.6398 15.9884 L 45.7428 16.2165 L 45.8464 16.4895 L 45.9545 16.8177 L 46.069 17.2118 L 46.195 17.6822 L 46.4905 18.8937 L 46.8672 20.5358 L 47.3508 22.6923 L 47.6725 24.1497 L 47.9188 25.3049 L 48.0947 26.1993 L 48.2066 26.8741 L 48.2399 27.1427 L 48.259 27.3717 L 48.2654 27.5662 L 48.259 27.7325 L 48.2411 27.8745 L 48.2124 27.9986 L 48.1727 28.1086 L 48.1234 28.2109 L 48.0831 28.2672 L 48.0192 28.3299 L 47.819 28.4732 L 47.5254 28.6401 L 47.1384 28.8307 L 46.66 29.0437 L 46.0914 29.2797 L 45.4332 29.5368 L 44.6868 29.8151 L 44.3247 29.9641 L 43.9864 30.1355 L 43.6787 30.3223 L 43.4094 30.5193 L 43.1868 30.7195 L 43.0954 30.8193 L 43.0186 30.9171 L 42.9566 31.0131 L 42.9118 31.1058 L 42.8837 31.1954 L 42.8741 31.2798 L 42.8849 31.3591 L 42.9144 31.4615 L 43.0237 31.7154 L 43.1849 32.0077 L 43.3819 32.3058 L 43.5783 32.5942 L 43.7235 32.852 L 43.7766 32.9722 L 43.8175 33.088 L 43.8463 33.2006 L 43.8623 33.3112 L 43.8661 33.4206 L 43.8578 33.5306 L 43.8373 33.6419 L 43.8047 33.7558 L 43.7049 33.9956 L 43.5578 34.2592 L 43.3979 34.4907 L 43.3096 34.5956 L 43.2143 34.6941 L 43.1107 34.7869 L 42.9975 34.8738 L 42.8734 34.9564 L 42.7372 35.035 L 42.425 35.1834 L 42.0509 35.3235 L 41.605 35.461 L 41.0786 35.6005 L 40.7774 35.6804 L 40.5087 35.7642 L 40.2682 35.8531 L 40.0527 35.9484 L 39.8582 36.0527 L 39.6811 36.1672 L 39.518 36.2944 L 39.3644 36.4352 L 39.1905 36.613 L 39.0581 36.7658 L 38.9628 36.9123 L 38.8994 37.0703 L 38.8623 37.2564 L 38.8457 37.4893 L 38.8457 37.786 L 38.8566 38.1641 L 38.8636 38.7774 L 38.8514 39.0058 L 38.8259 39.1938 L 38.7862 39.3512 L 38.7299 39.4849 L 38.6557 39.6051 L 38.5623 39.7203 L 38.4651 39.82 L 38.3711 39.8987 L 38.2758 39.9576 L 38.1747 39.9972 L 38.0641 40.0196 L 37.94 40.026 L 37.7967 40.017 L 37.6317 39.9946 L 36.5443 39.8277 L 36.1644 39.7816 L 35.8663 39.7599 L 35.629 39.7625 L 35.432 39.7868 L 35.2529 39.8335 L 35.0726 39.9013 L 34.96 39.9556 L 34.8429 40.0254 L 34.6108 40.1993 L 34.4022 40.4015 L 34.3159 40.5057 L 34.2455 40.6081 L 34.1528 40.768 L 34.0869 40.9087 L 34.0492 41.05 L 34.0396 41.2093 L 34.0587 41.4057 L 34.108 41.657 L 34.2948 42.3984 L 34.3843 42.7533 L 34.4534 43.077 L 34.5014 43.3725 L 34.5276 43.6424 L 34.5302 43.8893 L 34.5072 44.1151 L 34.4592 44.3236 L 34.3831 44.5168 L 34.2782 44.6972 L 34.1439 44.8679 L 33.9782 45.0317 L 33.7799 45.1909 L 33.5477 45.3476 L 33.2804 45.5056 L 32.9765 45.6668 L 32.6356 45.8344 L 32.3024 45.9841 L 31.957 46.1241 L 31.5969 46.2534 L 31.2221 46.373 L 30.8313 46.4823 L 30.4225 46.5821 L 29.9953 46.6729 L 29.5475 46.7542 L 29.0793 46.8265 L 28.5881 46.8898 L 28.0739 46.9441 L 27.5347 46.9908 L 26.9692 47.0292 L 26.3769 47.0593 L 25.1049 47.0964 L 23.8224 47.106 L 22.6451 47.0925 L 21.7035 47.0599 L 21.3617 47.0375 L 21.1279 47.0107 L 21.1278 47.0107"
       id="path897"
       sodipodi:nodetypes="csssssssssscsssssssssssssssssssssssssssssscc" />
  </g>
  <g
     inkscape:label="B.Cu"
     inkscape:groupmode="layer"
     id="g836"
     style="display:inline" />
  <g
     inkscape:label="B.Mask"
     inkscape:groupmode="layer"
     id="g838"
     style="display:inline" />
  <g
     inkscape:label="B.SilkS"
     inkscape:groupmode="layer"
     id="g840"
     style="display:inline" />
  <g
     inkscape:label="F.Cu"
     inkscape:groupmode="layer"
     id="g842"
     style="display:inline" />
  <g
     inkscape:label="F.Mask"
     inkscape:groupmode="layer"
     id="g844"
     style="display:inline" />
  <g
     inkscape:label="F.SilkS"
     inkscape:groupmode="layer"
     id="g846"
     style="display:inline">
    <path
       id="path943"
       style="fill:#000000;stroke-width:0.639621"
       d="m 25.727138,1.894184 c -0.413861,-0.00249 -0.831251,0.025498 -1.250406,0.084949 -2.0578,0.2918535 -3.471537,0.9891395 -5.180788,2.5553552 -2.023511,1.8541793 -3.116776,3.9241417 -4.00937,7.5913568 -0.611725,2.513263 -1.485776,3.229645 -3.941282,3.229645 -0.611705,0 -1.5930276,-0.109272 -2.1805346,-0.242941 -0.587517,-0.133661 -1.685384,-0.29498 -2.439663,-0.358302 -2.043605,-0.17156 -2.909057,0.346373 -3.532744,2.114095 -0.312292,0.885122 -2.45751498,10.468933 -2.45751498,10.979001 0,0.511658 0.66045198,1.100308 1.65002298,1.470873 0.442202,0.165597 1.365215,0.564586 2.050966,0.886488 l 1.246759,0.585376 -0.11006,0.871293 c -0.331693,2.625249 -0.335622,2.542207 0.14742,3.116267 0.311697,0.37043 0.749902,0.623004 1.41402,0.815094 1.886708,0.545714 2.397322,0.778734 2.828702,1.291397 0.3904326,0.464007 0.4251506,0.61378 0.3265736,1.402785 -0.13458,1.077168 0.161928,1.752499 0.996231,2.268118 0.70333,0.434684 1.113554,0.437469 2.311079,0.01618 1.186947,-0.417527 1.811209,-0.419792 2.485622,-0.0087 0.894515,0.545426 0.961269,0.841263 0.538438,2.38414 -0.351123,1.281219 -0.356905,1.393784 -0.09916,1.934278 0.458805,0.962131 2.102033,1.721751 4.605983,2.129631 0.465387,0.0758 2.25503,0.114634 3.976974,0.08595 2.414091,-0.04025 3.518237,-0.135477 4.823151,-0.416144 1.776433,-0.382084 3.463123,-1.078146 4.101922,-1.692663 0.589145,-0.566768 0.648431,-1.144148 0.265427,-2.589398 -0.331226,-1.249807 -0.333458,-1.323357 -0.04953,-1.790172 0.162843,-0.267798 0.53486,-0.585817 0.826659,-0.706679 0.503214,-0.208433 0.762108,-0.198993 2.559308,0.0932 0.475008,0.07722 0.663649,0.02143 0.930782,-0.274672 0.276892,-0.306917 0.327959,-0.576894 0.294509,-1.555821 -0.03871,-1.134094 -0.01716,-1.207467 0.507708,-1.728693 0.39914,-0.396372 0.864984,-0.623509 1.713802,-0.835256 1.520123,-0.379212 2.076636,-0.680315 2.479666,-1.341304 0.4524,-0.741968 0.416912,-1.134721 -0.176172,-1.953457 -0.279231,-0.385468 -0.507708,-0.846954 -0.507708,-1.025645 0,-0.437584 0.823071,-1.102611 1.812652,-1.46459 2.106723,-0.770618 3.285139,-1.32055 3.436888,-1.604082 0.285276,-0.533048 0.193018,-1.192612 -0.773125,-5.518916 -1.453973,-6.510815 -1.494638,-6.64243 -2.324962,-7.536831 -0.681959,-0.734512 -1.49884,-0.860344 -3.577035,-0.5516 -2.133347,0.31694 -2.564728,0.224155 -3.730733,-0.802207 C 36.887673,13.07114 36.244741,11.933967 35.259772,9.4551729 33.403813,4.7843579 29.727841,1.9185225 25.727196,1.8941871 Z m -0.249555,0.2809543 c 2.528685,-0.010031 4.429539,0.8151291 6.411694,2.783092 1.493828,1.4831427 2.291278,2.7529186 3.293767,5.2462257 1.197779,2.979033 1.866167,3.866156 3.466292,4.598707 0.863317,0.395243 0.905658,0.398087 2.098883,0.147088 1.617479,-0.340247 2.965203,-0.329642 3.570766,0.02807 0.264618,0.156316 0.669178,0.632283 0.899048,1.057709 0.391672,0.724882 0.625413,1.623205 1.80769,6.95046 0.258202,1.163477 0.600746,2.674435 0.761553,3.357557 0.285256,1.211898 0.284535,1.252961 -0.04202,1.69233 -0.239533,0.322311 -0.849872,0.637945 -2.147153,1.110593 l -1.812311,0.660403 -0.44424,-0.331521 c -0.702784,-0.524685 -1.4918,-2.051038 -2.611223,-5.050875 l -0.315656,-0.846161 0.07926,0.766503 c 0.04368,0.42153 0.360922,1.678085 0.705357,2.79235 0.344445,1.114259 0.806829,2.629886 1.027301,3.368137 0.220482,0.738251 0.589525,1.589965 0.82039,1.892634 0.891308,1.168569 0.245217,2.395272 -1.453689,2.759628 -0.467922,0.100348 -0.923403,0.182451 -1.012093,0.182451 -0.277709,0 -1.688902,-2.051783 -2.444303,-3.553895 -0.397862,-0.791182 -0.968639,-2.238113 -1.268588,-3.215429 -0.29994,-0.97731 -0.651346,-2.081571 -0.780701,-2.453881 l -0.235349,-0.676939 0.09816,1.0154 c 0.146787,1.522536 1.008358,5.637674 1.700924,8.12319 1.295068,4.647799 1.145669,5.67968 -0.729818,5.04064 -1.339632,-0.456465 -2.592826,-2.25006 -3.537033,-5.062783 -0.473118,-1.409405 -1.252853,-4.938087 -1.255037,-5.679556 -6.44e-4,-0.25047 -0.08882,-0.50942 -0.19568,-0.575461 -0.144144,-0.08908 -0.163974,0.312411 -0.07741,1.555496 0.271774,3.899227 0.758355,6.965023 1.810332,11.406381 0.209436,0.884244 0.386943,1.983854 0.394333,2.443629 0.01277,0.791531 -0.02515,0.865491 -0.711977,1.390888 -0.816715,0.624737 -2.469809,1.168545 -4.60499,1.515167 -1.564852,0.254033 -6.552095,0.288131 -8.132117,0.05551 -1.3156,-0.193697 -2.79302,-0.779953 -3.474901,-1.378653 -0.628493,-0.551819 -0.748751,-1.197275 -0.393338,-2.111779 0.312311,-0.803621 1.330702,-6.791333 1.663906,-9.784124 0.246766,-2.216339 0.413871,-5.092774 0.289225,-4.978167 -0.05908,0.05437 -0.250939,0.892056 -0.426067,1.861569 -0.512759,2.838786 -2.057898,6.999037 -3.209143,8.640804 -1.137254,1.621812 -3.008344,2.168638 -4.05995,1.186287 -0.283747,-0.265058 -0.563359,-0.670098 -0.621066,-0.900042 -0.06444,-0.256712 0.252402,-1.850713 0.820712,-4.129684 0.791259,-3.17306 1.317452,-5.834978 1.694977,-8.577015 0.119606,-0.868729 -0.171189,-0.807261 -0.31897,0.06743 -0.197444,1.16866 -1.256158,4.220868 -1.869822,5.390339 -0.317479,0.605013 -0.9863636,1.6331 -1.4864086,2.284652 -0.886257,1.154772 -0.927146,1.183874 -1.619946,1.151585 -0.980124,-0.04567 -1.745041,-0.52887 -1.985177,-1.25404 -0.22601,-0.682488 -0.175606,-0.966378 1.143972,-6.431526 0.880085,-3.644985 1.209565,-5.342892 0.991598,-5.111042 -0.07088,0.07541 -0.406899,0.813913 -0.746665,1.641102 -0.54614,1.329575 -1.174731,2.594426 -2.339196,4.707452 -0.189976,0.344744 -0.434851,0.661351 -0.544386,0.703381 -0.25363,0.09733 -2.395849,-0.80087 -2.81515,-1.180332 -0.51655098,-0.467466 -0.53452898,-0.351499 1.274535,-8.228633 0.93516,-4.071953 1.194659,-4.634647 2.363316,-5.122941 0.569763,-0.238059 0.815594,-0.2289 3.029003,0.114365 4.2194316,0.654371 6.0292556,0.35508 6.8420516,-1.131421 0.204522,-0.374062 0.605494,-1.591364 0.890781,-2.705408 0.745573,-2.9114341 1.601587,-4.5391873 3.294761,-6.2642706 1.967004,-2.0040656 4.028187,-2.9439897 6.47681,-2.953648 z m 4.796701,5.2548206 c -0.381639,0.0057 -0.747251,0.197636 -1.175706,0.584716 -0.763708,0.689965 -2.385789,3.0598501 -2.385789,3.4858071 0,0.413164 0.211571,0.457748 2.250935,0.472658 1.351322,0.0097 1.961701,-0.0559 2.341829,-0.252527 0.668748,-0.345824 1.23,-1.562899 1.071592,-2.3233201 -0.156467,-0.75105 -0.511842,-1.262305 -1.146623,-1.64936 -0.353005,-0.215239 -0.659389,-0.322669 -0.956238,-0.317974 z m -8.745256,0.156342 c -1.739892,0 -2.704514,2.240818 -1.585559,3.6834631 0.667471,0.860569 1.18681,0.969119 3.696347,0.773779 0.909412,-0.07079 1.441123,-0.187126 1.495008,-0.32756 C 25.244885,11.429158 23.821135,9.2185619 22.938096,8.3055429 22.33614,7.6831589 22.1463,7.5863009 21.529028,7.5863009 Z m 12.424425,4.6030061 c -0.279875,-0.01996 -0.560296,0.304477 -0.725187,0.981683 -0.261098,1.072384 -0.618315,1.220852 -1.314537,0.546046 -0.309758,-0.300239 -0.728064,-0.546046 -0.929779,-0.546046 -0.394352,0 -0.717261,0.446679 -0.717261,0.992264 0,0.374045 -0.419233,0.869304 -0.735775,0.869304 -0.112099,0 -0.354029,-0.323663 -0.537776,-0.719242 -0.284321,-0.612092 -0.409795,-0.719242 -0.841868,-0.719242 -0.438956,0 -0.55974,0.108844 -0.891775,0.803857 -0.21122,0.442127 -0.455169,0.803857 -0.542084,0.803857 -0.08687,0 -0.287821,-0.273694 -0.446551,-0.608177 -0.30535,-0.643492 -0.888743,-1.024859 -1.316506,-0.860713 -0.141357,0.05424 -0.41665,0.411713 -0.611822,0.794276 -0.300018,0.588093 -0.425375,0.687119 -0.81145,0.642557 -0.376238,-0.04343 -0.486611,-0.171765 -0.626047,-0.729489 -0.229783,-0.919166 -0.371821,-1.100014 -0.864008,-1.100014 -0.290025,0 -0.510702,0.157096 -0.709316,0.505051 -0.158564,0.277782 -0.381162,0.541011 -0.49482,0.58505 -0.298516,0.115674 -0.724193,-0.371928 -0.724193,-0.829641 0,-0.215732 -0.147713,-0.571892 -0.328222,-0.791628 -0.309943,-0.377292 -0.354409,-0.385389 -0.799556,-0.141804 -1.252044,0.685119 -1.152298,4.731695 0.172203,6.99178 1.021383,1.742866 2.008176,2.481315 3.316239,2.481315 0.734937,0 1.397388,-0.494453 1.625572,-1.213389 0.158612,-0.499734 0.831914,-0.34389 0.85542,0.19799 0.01014,0.232695 0.02915,0.560123 0.04231,0.727505 0.04797,0.609445 1.402379,0.902506 1.993444,0.431347 0.106005,-0.08451 0.277409,-0.489534 0.380772,-0.900043 0.103372,-0.410514 0.262472,-0.792451 0.353678,-0.848817 0.229861,-0.142058 0.849804,0.214295 0.849804,0.488531 0,0.123786 0.163117,0.43236 0.362257,0.685528 0.314495,0.39982 0.441276,0.445337 0.965159,0.347059 1.416311,-0.265706 2.612676,-1.284579 3.791882,-3.228982 1.014471,-1.672784 1.389636,-3.794408 0.981684,-5.552964 -0.162513,-0.700538 -0.442008,-1.064866 -0.721883,-1.084809 z" />
  </g>
  <g
     inkscape:label="Dwgs.User"
     inkscape:groupmode="layer"
     id="g848"
     style="display:inline" />
  <g
     inkscape:label="Drill"
     inkscape:groupmode="layer"
     id="g850"
     style="display:inline" />
</svg>
