%TF.GenerationSoftware,KiCad,Pcbnew,5.1.10*%
%TF.CreationDate,2021-09-11T14:13:10+02:00*%
%TF.ProjectId,seegeist,73656567-6569-4737-942e-6b696361645f,rev?*%
%TF.SameCoordinates,Original*%
%TF.FileFunction,Soldermask,Top*%
%TF.FilePolarity,Negative*%
%FSLAX46Y46*%
G04 Gerber Fmt 4.6, Leading zero omitted, Abs format (unit mm)*
G04 Created by KiCad (PCBNEW 5.1.10) date 2021-09-11 14:13:10*
%MOMM*%
%LPD*%
G01*
G04 APERTURE LIST*
%ADD10C,2.000000*%
%ADD11C,2.400000*%
G04 APERTURE END LIST*
%TO.C,*%
G36*
G01*
X51440007Y-30906711D02*
X52185007Y-32197089D01*
G75*
G02*
X52064219Y-32647877I-285788J-165000D01*
G01*
X51206853Y-33142877D01*
G75*
G02*
X50756065Y-33022089I-165000J285788D01*
G01*
X50011065Y-31731711D01*
G75*
G02*
X50131853Y-31280923I285788J165000D01*
G01*
X50989219Y-30785923D01*
G75*
G02*
X51440007Y-30906711I165000J-285788D01*
G01*
G37*
G36*
G01*
X49015135Y-32306711D02*
X49760135Y-33597089D01*
G75*
G02*
X49639347Y-34047877I-285788J-165000D01*
G01*
X48781981Y-34542877D01*
G75*
G02*
X48331193Y-34422089I-165000J285788D01*
G01*
X47586193Y-33131711D01*
G75*
G02*
X47706981Y-32680923I285788J165000D01*
G01*
X48564347Y-32185923D01*
G75*
G02*
X49015135Y-32306711I165000J-285788D01*
G01*
G37*
%TD*%
%TO.C,*%
G36*
G01*
X41940629Y-33709889D02*
X42685629Y-32419511D01*
G75*
G02*
X43136417Y-32298723I285788J-165000D01*
G01*
X43993783Y-32793723D01*
G75*
G02*
X44114571Y-33244511I-165000J-285788D01*
G01*
X43369571Y-34534889D01*
G75*
G02*
X42918783Y-34655677I-285788J165000D01*
G01*
X42061417Y-34160677D01*
G75*
G02*
X41940629Y-33709889I165000J285788D01*
G01*
G37*
G36*
G01*
X39515757Y-32309889D02*
X40260757Y-31019511D01*
G75*
G02*
X40711545Y-30898723I285788J-165000D01*
G01*
X41568911Y-31393723D01*
G75*
G02*
X41689699Y-31844511I-165000J-285788D01*
G01*
X40944699Y-33134889D01*
G75*
G02*
X40493911Y-33255677I-285788J165000D01*
G01*
X39636545Y-32760677D01*
G75*
G02*
X39515757Y-32309889I165000J285788D01*
G01*
G37*
%TD*%
D10*
%TO.C,R1*%
X26670000Y-40182800D03*
G36*
G01*
X23537095Y-48790384D02*
X23537095Y-48790384D01*
G75*
G02*
X24134768Y-50072097I-342020J-939693D01*
G01*
X24134768Y-50072097D01*
G75*
G02*
X22853055Y-50669770I-939693J342020D01*
G01*
X22853055Y-50669770D01*
G75*
G02*
X22255382Y-49388057I342020J939693D01*
G01*
X22255382Y-49388057D01*
G75*
G02*
X23537095Y-48790384I939693J-342020D01*
G01*
G37*
%TD*%
%TO.C,R2*%
G36*
G01*
X65007305Y-48536384D02*
X65007305Y-48536384D01*
G75*
G02*
X66289018Y-49134057I342020J-939693D01*
G01*
X66289018Y-49134057D01*
G75*
G02*
X65691345Y-50415770I-939693J-342020D01*
G01*
X65691345Y-50415770D01*
G75*
G02*
X64409632Y-49818097I-342020J939693D01*
G01*
X64409632Y-49818097D01*
G75*
G02*
X65007305Y-48536384I939693J342020D01*
G01*
G37*
X61874400Y-39928800D03*
%TD*%
D11*
%TO.C,SW1*%
X60090401Y-54436903D03*
X59433000Y-51983452D03*
X58775600Y-49530000D03*
%TD*%
M02*
