%TF.GenerationSoftware,KiCad,Pcbnew,5.1.10*%
%TF.CreationDate,2021-09-11T14:13:10+02:00*%
%TF.ProjectId,seegeist,73656567-6569-4737-942e-6b696361645f,rev?*%
%TF.SameCoordinates,Original*%
%TF.FileFunction,Soldermask,Bot*%
%TF.FilePolarity,Negative*%
%FSLAX46Y46*%
G04 Gerber Fmt 4.6, Leading zero omitted, Abs format (unit mm)*
G04 Created by KiCad (PCBNEW 5.1.10) date 2021-09-11 14:13:10*
%MOMM*%
%LPD*%
G01*
G04 APERTURE LIST*
%ADD10C,3.500000*%
%ADD11C,2.000000*%
%ADD12C,2.400000*%
G04 APERTURE END LIST*
D10*
%TO.C,*%
X46618400Y-28368000D02*
G75*
G03*
X46618400Y-28368000I-1000000J0D01*
G01*
%TD*%
%TO.C,BT1*%
G36*
G01*
X57892000Y-54651600D02*
X57892000Y-59851600D01*
G75*
G02*
X57841200Y-59902400I-50800J0D01*
G01*
X55341200Y-59902400D01*
G75*
G02*
X55290400Y-59851600I0J50800D01*
G01*
X55290400Y-54651600D01*
G75*
G02*
X55341200Y-54600800I50800J0D01*
G01*
X57841200Y-54600800D01*
G75*
G02*
X57892000Y-54651600I0J-50800D01*
G01*
G37*
G36*
G01*
X52712000Y-57251600D02*
X52712000Y-57251600D01*
G75*
G02*
X46661200Y-63302400I-6050800J0D01*
G01*
X43661200Y-63302400D01*
G75*
G02*
X37610400Y-57251600I0J6050800D01*
G01*
X37610400Y-57251600D01*
G75*
G02*
X43661200Y-51200800I6050800J0D01*
G01*
X46661200Y-51200800D01*
G75*
G02*
X52712000Y-57251600I0J-6050800D01*
G01*
G37*
G36*
G01*
X35032000Y-54651600D02*
X35032000Y-59851600D01*
G75*
G02*
X34981200Y-59902400I-50800J0D01*
G01*
X32481200Y-59902400D01*
G75*
G02*
X32430400Y-59851600I0J50800D01*
G01*
X32430400Y-54651600D01*
G75*
G02*
X32481200Y-54600800I50800J0D01*
G01*
X34981200Y-54600800D01*
G75*
G02*
X35032000Y-54651600I0J-50800D01*
G01*
G37*
%TD*%
D11*
%TO.C,R1*%
X26670000Y-40182800D03*
G36*
G01*
X23537095Y-48790384D02*
X23537095Y-48790384D01*
G75*
G02*
X24134768Y-50072097I-342020J-939693D01*
G01*
X24134768Y-50072097D01*
G75*
G02*
X22853055Y-50669770I-939693J342020D01*
G01*
X22853055Y-50669770D01*
G75*
G02*
X22255382Y-49388057I342020J939693D01*
G01*
X22255382Y-49388057D01*
G75*
G02*
X23537095Y-48790384I939693J-342020D01*
G01*
G37*
%TD*%
%TO.C,R2*%
G36*
G01*
X65007305Y-48536384D02*
X65007305Y-48536384D01*
G75*
G02*
X66289018Y-49134057I342020J-939693D01*
G01*
X66289018Y-49134057D01*
G75*
G02*
X65691345Y-50415770I-939693J-342020D01*
G01*
X65691345Y-50415770D01*
G75*
G02*
X64409632Y-49818097I-342020J939693D01*
G01*
X64409632Y-49818097D01*
G75*
G02*
X65007305Y-48536384I939693J342020D01*
G01*
G37*
X61874400Y-39928800D03*
%TD*%
D12*
%TO.C,SW1*%
X60090401Y-54436903D03*
X59433000Y-51983452D03*
X58775600Y-49530000D03*
%TD*%
M02*
