%TF.GenerationSoftware,KiCad,Pcbnew,5.1.10*%
%TF.CreationDate,2021-09-11T14:13:10+02:00*%
%TF.ProjectId,seegeist,73656567-6569-4737-942e-6b696361645f,rev?*%
%TF.SameCoordinates,Original*%
%TF.FileFunction,Legend,Bot*%
%TF.FilePolarity,Positive*%
%FSLAX46Y46*%
G04 Gerber Fmt 4.6, Leading zero omitted, Abs format (unit mm)*
G04 Created by KiCad (PCBNEW 5.1.10) date 2021-09-11 14:13:10*
%MOMM*%
%LPD*%
G01*
G04 APERTURE LIST*
%ADD10C,0.150000*%
%ADD11C,0.203200*%
%ADD12C,0.120000*%
%ADD13C,0.092659*%
G04 APERTURE END LIST*
D10*
X53080323Y-43727714D02*
X53080323Y-44537238D01*
X53127942Y-44632476D01*
X53175561Y-44680095D01*
X53270800Y-44727714D01*
X53413657Y-44727714D01*
X53508895Y-44680095D01*
X53080323Y-44346761D02*
X53175561Y-44394380D01*
X53366038Y-44394380D01*
X53461276Y-44346761D01*
X53508895Y-44299142D01*
X53556514Y-44203904D01*
X53556514Y-43918190D01*
X53508895Y-43822952D01*
X53461276Y-43775333D01*
X53366038Y-43727714D01*
X53175561Y-43727714D01*
X53080323Y-43775333D01*
X52604133Y-44394380D02*
X52604133Y-43727714D01*
X52604133Y-43394380D02*
X52651752Y-43442000D01*
X52604133Y-43489619D01*
X52556514Y-43442000D01*
X52604133Y-43394380D01*
X52604133Y-43489619D01*
X52270800Y-43727714D02*
X51889847Y-43727714D01*
X52127942Y-43394380D02*
X52127942Y-44251523D01*
X52080323Y-44346761D01*
X51985085Y-44394380D01*
X51889847Y-44394380D01*
X51556514Y-44394380D02*
X51556514Y-43394380D01*
X51127942Y-44394380D02*
X51127942Y-43870571D01*
X51175561Y-43775333D01*
X51270800Y-43727714D01*
X51413657Y-43727714D01*
X51508895Y-43775333D01*
X51556514Y-43822952D01*
X50223180Y-43727714D02*
X50223180Y-44394380D01*
X50651752Y-43727714D02*
X50651752Y-44251523D01*
X50604133Y-44346761D01*
X50508895Y-44394380D01*
X50366038Y-44394380D01*
X50270800Y-44346761D01*
X50223180Y-44299142D01*
X49746990Y-44394380D02*
X49746990Y-43394380D01*
X49746990Y-43775333D02*
X49651752Y-43727714D01*
X49461276Y-43727714D01*
X49366038Y-43775333D01*
X49318419Y-43822952D01*
X49270800Y-43918190D01*
X49270800Y-44203904D01*
X49318419Y-44299142D01*
X49366038Y-44346761D01*
X49461276Y-44394380D01*
X49651752Y-44394380D01*
X49746990Y-44346761D01*
X48842228Y-44299142D02*
X48794609Y-44346761D01*
X48842228Y-44394380D01*
X48889847Y-44346761D01*
X48842228Y-44299142D01*
X48842228Y-44394380D01*
X47937466Y-44346761D02*
X48032704Y-44394380D01*
X48223180Y-44394380D01*
X48318419Y-44346761D01*
X48366038Y-44299142D01*
X48413657Y-44203904D01*
X48413657Y-43918190D01*
X48366038Y-43822952D01*
X48318419Y-43775333D01*
X48223180Y-43727714D01*
X48032704Y-43727714D01*
X47937466Y-43775333D01*
X47366038Y-44394380D02*
X47461276Y-44346761D01*
X47508895Y-44299142D01*
X47556514Y-44203904D01*
X47556514Y-43918190D01*
X47508895Y-43822952D01*
X47461276Y-43775333D01*
X47366038Y-43727714D01*
X47223180Y-43727714D01*
X47127942Y-43775333D01*
X47080323Y-43822952D01*
X47032704Y-43918190D01*
X47032704Y-44203904D01*
X47080323Y-44299142D01*
X47127942Y-44346761D01*
X47223180Y-44394380D01*
X47366038Y-44394380D01*
X46604133Y-44394380D02*
X46604133Y-43727714D01*
X46604133Y-43822952D02*
X46556514Y-43775333D01*
X46461276Y-43727714D01*
X46318419Y-43727714D01*
X46223180Y-43775333D01*
X46175561Y-43870571D01*
X46175561Y-44394380D01*
X46175561Y-43870571D02*
X46127942Y-43775333D01*
X46032704Y-43727714D01*
X45889847Y-43727714D01*
X45794609Y-43775333D01*
X45746990Y-43870571D01*
X45746990Y-44394380D01*
X44556514Y-43346761D02*
X45413657Y-44632476D01*
X44080323Y-44394380D02*
X44175561Y-44346761D01*
X44223180Y-44299142D01*
X44270800Y-44203904D01*
X44270800Y-43918190D01*
X44223180Y-43822952D01*
X44175561Y-43775333D01*
X44080323Y-43727714D01*
X43937466Y-43727714D01*
X43842228Y-43775333D01*
X43794609Y-43822952D01*
X43746990Y-43918190D01*
X43746990Y-44203904D01*
X43794609Y-44299142D01*
X43842228Y-44346761D01*
X43937466Y-44394380D01*
X44080323Y-44394380D01*
X43318419Y-44394380D02*
X43318419Y-43394380D01*
X43318419Y-43775333D02*
X43223180Y-43727714D01*
X43032704Y-43727714D01*
X42937466Y-43775333D01*
X42889847Y-43822952D01*
X42842228Y-43918190D01*
X42842228Y-44203904D01*
X42889847Y-44299142D01*
X42937466Y-44346761D01*
X43032704Y-44394380D01*
X43223180Y-44394380D01*
X43318419Y-44346761D01*
X42032704Y-44346761D02*
X42127942Y-44394380D01*
X42318419Y-44394380D01*
X42413657Y-44346761D01*
X42461276Y-44251523D01*
X42461276Y-43870571D01*
X42413657Y-43775333D01*
X42318419Y-43727714D01*
X42127942Y-43727714D01*
X42032704Y-43775333D01*
X41985085Y-43870571D01*
X41985085Y-43965809D01*
X42461276Y-44061047D01*
X41556514Y-44394380D02*
X41556514Y-43727714D01*
X41556514Y-43918190D02*
X41508895Y-43822952D01*
X41461276Y-43775333D01*
X41366038Y-43727714D01*
X41270800Y-43727714D01*
X40794609Y-44394380D02*
X40889847Y-44346761D01*
X40937466Y-44251523D01*
X40937466Y-43394380D01*
X39985085Y-44394380D02*
X39985085Y-43870571D01*
X40032704Y-43775333D01*
X40127942Y-43727714D01*
X40318419Y-43727714D01*
X40413657Y-43775333D01*
X39985085Y-44346761D02*
X40080323Y-44394380D01*
X40318419Y-44394380D01*
X40413657Y-44346761D01*
X40461276Y-44251523D01*
X40461276Y-44156285D01*
X40413657Y-44061047D01*
X40318419Y-44013428D01*
X40080323Y-44013428D01*
X39985085Y-43965809D01*
X39508895Y-44394380D02*
X39508895Y-43394380D01*
X39508895Y-43775333D02*
X39413657Y-43727714D01*
X39223180Y-43727714D01*
X39127942Y-43775333D01*
X39080323Y-43822952D01*
X39032704Y-43918190D01*
X39032704Y-44203904D01*
X39080323Y-44299142D01*
X39127942Y-44346761D01*
X39223180Y-44394380D01*
X39413657Y-44394380D01*
X39508895Y-44346761D01*
X37889847Y-43346761D02*
X38746990Y-44632476D01*
X51308876Y-38832780D02*
X51308876Y-37832780D01*
X50737447Y-38832780D02*
X51166019Y-38261352D01*
X50737447Y-37832780D02*
X51308876Y-38404209D01*
X49880304Y-38832780D02*
X49880304Y-38308971D01*
X49927923Y-38213733D01*
X50023161Y-38166114D01*
X50213638Y-38166114D01*
X50308876Y-38213733D01*
X49880304Y-38785161D02*
X49975542Y-38832780D01*
X50213638Y-38832780D01*
X50308876Y-38785161D01*
X50356495Y-38689923D01*
X50356495Y-38594685D01*
X50308876Y-38499447D01*
X50213638Y-38451828D01*
X49975542Y-38451828D01*
X49880304Y-38404209D01*
X49404114Y-38832780D02*
X49404114Y-38166114D01*
X49404114Y-38356590D02*
X49356495Y-38261352D01*
X49308876Y-38213733D01*
X49213638Y-38166114D01*
X49118400Y-38166114D01*
X48642209Y-38832780D02*
X48737447Y-38785161D01*
X48785066Y-38689923D01*
X48785066Y-37832780D01*
X48261257Y-38832780D02*
X48261257Y-37832780D01*
X47832685Y-38832780D02*
X47832685Y-38308971D01*
X47880304Y-38213733D01*
X47975542Y-38166114D01*
X48118400Y-38166114D01*
X48213638Y-38213733D01*
X48261257Y-38261352D01*
X46975542Y-38785161D02*
X47070780Y-38832780D01*
X47261257Y-38832780D01*
X47356495Y-38785161D01*
X47404114Y-38689923D01*
X47404114Y-38308971D01*
X47356495Y-38213733D01*
X47261257Y-38166114D01*
X47070780Y-38166114D01*
X46975542Y-38213733D01*
X46927923Y-38308971D01*
X46927923Y-38404209D01*
X47404114Y-38499447D01*
X46499352Y-38832780D02*
X46499352Y-38166114D01*
X46499352Y-37832780D02*
X46546971Y-37880400D01*
X46499352Y-37928019D01*
X46451733Y-37880400D01*
X46499352Y-37832780D01*
X46499352Y-37928019D01*
X46023161Y-38166114D02*
X46023161Y-38832780D01*
X46023161Y-38261352D02*
X45975542Y-38213733D01*
X45880304Y-38166114D01*
X45737447Y-38166114D01*
X45642209Y-38213733D01*
X45594590Y-38308971D01*
X45594590Y-38832780D01*
X45213638Y-38166114D02*
X44689828Y-38166114D01*
X45213638Y-38832780D01*
X44689828Y-38832780D01*
X43213638Y-38308971D02*
X43546971Y-38308971D01*
X43546971Y-38832780D02*
X43546971Y-37832780D01*
X43070780Y-37832780D01*
X42689828Y-38832780D02*
X42689828Y-38166114D01*
X42689828Y-38356590D02*
X42642209Y-38261352D01*
X42594590Y-38213733D01*
X42499352Y-38166114D01*
X42404114Y-38166114D01*
X41642209Y-38832780D02*
X41642209Y-38308971D01*
X41689828Y-38213733D01*
X41785066Y-38166114D01*
X41975542Y-38166114D01*
X42070780Y-38213733D01*
X41642209Y-38785161D02*
X41737447Y-38832780D01*
X41975542Y-38832780D01*
X42070780Y-38785161D01*
X42118399Y-38689923D01*
X42118399Y-38594685D01*
X42070780Y-38499447D01*
X41975542Y-38451828D01*
X41737447Y-38451828D01*
X41642209Y-38404209D01*
X41166019Y-38166114D02*
X41166019Y-38832780D01*
X41166019Y-38261352D02*
X41118399Y-38213733D01*
X41023161Y-38166114D01*
X40880304Y-38166114D01*
X40785066Y-38213733D01*
X40737447Y-38308971D01*
X40737447Y-38832780D01*
X40261257Y-38832780D02*
X40261257Y-37832780D01*
X40166019Y-38451828D02*
X39880304Y-38832780D01*
X39880304Y-38166114D02*
X40261257Y-38547066D01*
X51046971Y-40197066D02*
X50570780Y-40197066D01*
X51142209Y-40482780D02*
X50808876Y-39482780D01*
X50475542Y-40482780D01*
X49999352Y-40482780D02*
X50094590Y-40435161D01*
X50142209Y-40339923D01*
X50142209Y-39482780D01*
X49237447Y-40435161D02*
X49332685Y-40482780D01*
X49523161Y-40482780D01*
X49618400Y-40435161D01*
X49666019Y-40339923D01*
X49666019Y-39958971D01*
X49618400Y-39863733D01*
X49523161Y-39816114D01*
X49332685Y-39816114D01*
X49237447Y-39863733D01*
X49189828Y-39958971D01*
X49189828Y-40054209D01*
X49666019Y-40149447D01*
X48856495Y-40482780D02*
X48332685Y-39816114D01*
X48856495Y-39816114D02*
X48332685Y-40482780D01*
X47189828Y-40482780D02*
X47189828Y-39482780D01*
X46618400Y-40482780D02*
X47046971Y-39911352D01*
X46618400Y-39482780D02*
X47189828Y-40054209D01*
X45761257Y-39816114D02*
X45761257Y-40482780D01*
X46189828Y-39816114D02*
X46189828Y-40339923D01*
X46142209Y-40435161D01*
X46046971Y-40482780D01*
X45904114Y-40482780D01*
X45808876Y-40435161D01*
X45761257Y-40387542D01*
X45427923Y-39816114D02*
X45046971Y-39816114D01*
X45285066Y-39482780D02*
X45285066Y-40339923D01*
X45237447Y-40435161D01*
X45142209Y-40482780D01*
X45046971Y-40482780D01*
X44761257Y-40435161D02*
X44666019Y-40482780D01*
X44475542Y-40482780D01*
X44380304Y-40435161D01*
X44332685Y-40339923D01*
X44332685Y-40292304D01*
X44380304Y-40197066D01*
X44475542Y-40149447D01*
X44618400Y-40149447D01*
X44713638Y-40101828D01*
X44761257Y-40006590D01*
X44761257Y-39958971D01*
X44713638Y-39863733D01*
X44618400Y-39816114D01*
X44475542Y-39816114D01*
X44380304Y-39863733D01*
X43475542Y-40435161D02*
X43570780Y-40482780D01*
X43761257Y-40482780D01*
X43856495Y-40435161D01*
X43904114Y-40387542D01*
X43951733Y-40292304D01*
X43951733Y-40006590D01*
X43904114Y-39911352D01*
X43856495Y-39863733D01*
X43761257Y-39816114D01*
X43570780Y-39816114D01*
X43475542Y-39863733D01*
X43046971Y-40482780D02*
X43046971Y-39482780D01*
X42618400Y-40482780D02*
X42618400Y-39958971D01*
X42666019Y-39863733D01*
X42761257Y-39816114D01*
X42904114Y-39816114D01*
X42999352Y-39863733D01*
X43046971Y-39911352D01*
X41761257Y-40435161D02*
X41856495Y-40482780D01*
X42046971Y-40482780D01*
X42142209Y-40435161D01*
X42189828Y-40339923D01*
X42189828Y-39958971D01*
X42142209Y-39863733D01*
X42046971Y-39816114D01*
X41856495Y-39816114D01*
X41761257Y-39863733D01*
X41713638Y-39958971D01*
X41713638Y-40054209D01*
X42189828Y-40149447D01*
X41285066Y-40482780D02*
X41285066Y-39816114D01*
X41285066Y-40006590D02*
X41237447Y-39911352D01*
X41189828Y-39863733D01*
X41094590Y-39816114D01*
X40999352Y-39816114D01*
X40237447Y-40482780D02*
X40237447Y-39958971D01*
X40285066Y-39863733D01*
X40380304Y-39816114D01*
X40570780Y-39816114D01*
X40666019Y-39863733D01*
X40237447Y-40435161D02*
X40332685Y-40482780D01*
X40570780Y-40482780D01*
X40666019Y-40435161D01*
X40713638Y-40339923D01*
X40713638Y-40244685D01*
X40666019Y-40149447D01*
X40570780Y-40101828D01*
X40332685Y-40101828D01*
X40237447Y-40054209D01*
X49904114Y-42132780D02*
X50475542Y-42132780D01*
X50189828Y-42132780D02*
X50189828Y-41132780D01*
X50285066Y-41275638D01*
X50380304Y-41370876D01*
X50475542Y-41418495D01*
X48951733Y-42132780D02*
X49523161Y-42132780D01*
X49237447Y-42132780D02*
X49237447Y-41132780D01*
X49332685Y-41275638D01*
X49427923Y-41370876D01*
X49523161Y-41418495D01*
X48523161Y-41751828D02*
X47761257Y-41751828D01*
X47094590Y-41132780D02*
X46999352Y-41132780D01*
X46904114Y-41180400D01*
X46856495Y-41228019D01*
X46808876Y-41323257D01*
X46761257Y-41513733D01*
X46761257Y-41751828D01*
X46808876Y-41942304D01*
X46856495Y-42037542D01*
X46904114Y-42085161D01*
X46999352Y-42132780D01*
X47094590Y-42132780D01*
X47189828Y-42085161D01*
X47237447Y-42037542D01*
X47285066Y-41942304D01*
X47332685Y-41751828D01*
X47332685Y-41513733D01*
X47285066Y-41323257D01*
X47237447Y-41228019D01*
X47189828Y-41180400D01*
X47094590Y-41132780D01*
X46285066Y-42132780D02*
X46094590Y-42132780D01*
X45999352Y-42085161D01*
X45951733Y-42037542D01*
X45856495Y-41894685D01*
X45808876Y-41704209D01*
X45808876Y-41323257D01*
X45856495Y-41228019D01*
X45904114Y-41180400D01*
X45999352Y-41132780D01*
X46189828Y-41132780D01*
X46285066Y-41180400D01*
X46332685Y-41228019D01*
X46380304Y-41323257D01*
X46380304Y-41561352D01*
X46332685Y-41656590D01*
X46285066Y-41704209D01*
X46189828Y-41751828D01*
X45999352Y-41751828D01*
X45904114Y-41704209D01*
X45856495Y-41656590D01*
X45808876Y-41561352D01*
X45380304Y-41751828D02*
X44618400Y-41751828D01*
X44189828Y-41228019D02*
X44142209Y-41180400D01*
X44046971Y-41132780D01*
X43808876Y-41132780D01*
X43713638Y-41180400D01*
X43666019Y-41228019D01*
X43618400Y-41323257D01*
X43618400Y-41418495D01*
X43666019Y-41561352D01*
X44237447Y-42132780D01*
X43618400Y-42132780D01*
X42999352Y-41132780D02*
X42904114Y-41132780D01*
X42808876Y-41180400D01*
X42761257Y-41228019D01*
X42713638Y-41323257D01*
X42666019Y-41513733D01*
X42666019Y-41751828D01*
X42713638Y-41942304D01*
X42761257Y-42037542D01*
X42808876Y-42085161D01*
X42904114Y-42132780D01*
X42999352Y-42132780D01*
X43094590Y-42085161D01*
X43142209Y-42037542D01*
X43189828Y-41942304D01*
X43237447Y-41751828D01*
X43237447Y-41513733D01*
X43189828Y-41323257D01*
X43142209Y-41228019D01*
X43094590Y-41180400D01*
X42999352Y-41132780D01*
X42285066Y-41228019D02*
X42237447Y-41180400D01*
X42142209Y-41132780D01*
X41904114Y-41132780D01*
X41808876Y-41180400D01*
X41761257Y-41228019D01*
X41713638Y-41323257D01*
X41713638Y-41418495D01*
X41761257Y-41561352D01*
X42332685Y-42132780D01*
X41713638Y-42132780D01*
X40761257Y-42132780D02*
X41332685Y-42132780D01*
X41046971Y-42132780D02*
X41046971Y-41132780D01*
X41142209Y-41275638D01*
X41237447Y-41370876D01*
X41332685Y-41418495D01*
D11*
%TO.C,BT1*%
X52661200Y-49901600D02*
X37661200Y-49901600D01*
X52661200Y-49901600D02*
X55711200Y-52601600D01*
X37661200Y-49901600D02*
X34611200Y-52601600D01*
X34611200Y-61801600D02*
X39611200Y-65201600D01*
X50711200Y-65201600D02*
X55711200Y-61801600D01*
X34611200Y-52601600D02*
X34611200Y-54051600D01*
X55711200Y-54051600D02*
X55711200Y-52601600D01*
X55711200Y-61801600D02*
X55711200Y-60451600D01*
X34611200Y-61801600D02*
X34611200Y-60451600D01*
X50711199Y-65201599D02*
G75*
G03*
X39611200Y-65201600I-5549999J-9161300D01*
G01*
D12*
%TO.C,R1*%
X24763565Y-41415076D02*
X27338322Y-42352211D01*
X27338322Y-42352211D02*
X25101511Y-48497801D01*
X25101511Y-48497801D02*
X22526753Y-47560666D01*
X22526753Y-47560666D02*
X24763565Y-41415076D01*
X26314299Y-41160080D02*
X26050944Y-41883644D01*
X23550776Y-48752797D02*
X23814132Y-48029233D01*
%TO.C,R2*%
X64993624Y-48498797D02*
X64730268Y-47775233D01*
X62230101Y-40906080D02*
X62493456Y-41629644D01*
X63442889Y-48243801D02*
X61206078Y-42098211D01*
X66017647Y-47306666D02*
X63442889Y-48243801D01*
X63780835Y-41161076D02*
X66017647Y-47306666D01*
X61206078Y-42098211D02*
X63780835Y-41161076D01*
%TO.C,SW1*%
X60022267Y-46724131D02*
X56212843Y-47718567D01*
X62599276Y-56341661D02*
X60022267Y-46724131D01*
X58796426Y-57360632D02*
X62599276Y-56341661D01*
X56219417Y-47743102D02*
X58796426Y-57360632D01*
%TO.C,*%
D10*
%TO.C,BT1*%
D13*
X53546465Y-59277062D02*
X53583235Y-59387371D01*
X53620004Y-59424140D01*
X53693543Y-59460910D01*
X53803852Y-59460910D01*
X53877391Y-59424140D01*
X53914160Y-59387371D01*
X53950930Y-59313832D01*
X53950930Y-59019675D01*
X53178770Y-59019675D01*
X53178770Y-59277062D01*
X53215540Y-59350601D01*
X53252309Y-59387371D01*
X53325848Y-59424140D01*
X53399387Y-59424140D01*
X53472926Y-59387371D01*
X53509696Y-59350601D01*
X53546465Y-59277062D01*
X53546465Y-59019675D01*
X53178770Y-59681527D02*
X53178770Y-60122761D01*
X53950930Y-59902144D02*
X53178770Y-59902144D01*
X53950930Y-60784613D02*
X53950930Y-60343378D01*
X53950930Y-60563995D02*
X53178770Y-60563995D01*
X53289079Y-60490456D01*
X53362618Y-60416917D01*
X53399387Y-60343378D01*
%TO.C,R1*%
D10*
X26034502Y-43330507D02*
X25701036Y-42854410D01*
X26229942Y-42793540D02*
X25290249Y-42451520D01*
X25159956Y-42809498D01*
X25172130Y-42915279D01*
X25200590Y-42976313D01*
X25273798Y-43053634D01*
X25408040Y-43102494D01*
X25513821Y-43090320D01*
X25574855Y-43061860D01*
X25652176Y-42988652D01*
X25782469Y-42630674D01*
X25708768Y-44225453D02*
X25904209Y-43688486D01*
X25806488Y-43956969D02*
X24866796Y-43614949D01*
X25033611Y-43574315D01*
X25155679Y-43517393D01*
X25232999Y-43444186D01*
%TO.C,R2*%
X63233504Y-45066138D02*
X63794983Y-45216502D01*
X63428944Y-45603106D02*
X64368637Y-45261085D01*
X64238343Y-44903107D01*
X64161023Y-44829899D01*
X64099989Y-44801439D01*
X63994207Y-44789265D01*
X63859966Y-44838125D01*
X63786758Y-44915446D01*
X63758297Y-44976479D01*
X63746123Y-45082261D01*
X63876417Y-45440239D01*
X63953409Y-44398713D02*
X63981869Y-44337679D01*
X63994043Y-44231898D01*
X63912610Y-44008162D01*
X63835289Y-43934954D01*
X63774255Y-43906493D01*
X63668474Y-43894320D01*
X63578979Y-43926893D01*
X63461024Y-44020500D01*
X63119497Y-44752907D01*
X62907770Y-44171193D01*
%TO.C,SW1*%
X55224522Y-51633861D02*
X55141551Y-51508196D01*
X55079927Y-51278214D01*
X55101274Y-51173896D01*
X55134946Y-51115575D01*
X55214614Y-51044929D01*
X55306607Y-51020279D01*
X55410925Y-51041627D01*
X55469246Y-51075298D01*
X55539892Y-51154967D01*
X55635187Y-51326628D01*
X55705833Y-51406296D01*
X55764154Y-51439968D01*
X55868472Y-51461315D01*
X55960465Y-51436665D01*
X56040133Y-51366019D01*
X56073805Y-51307698D01*
X56095152Y-51203380D01*
X56033528Y-50973398D01*
X55950558Y-50847733D01*
X55910281Y-50513433D02*
X54882732Y-50542270D01*
X55523380Y-50173414D01*
X54784134Y-50174298D01*
X55688436Y-49685497D01*
X54488341Y-49070383D02*
X54636238Y-49622341D01*
X54562289Y-49346362D02*
X55528215Y-49087543D01*
X55414875Y-49216510D01*
X55347532Y-49333152D01*
X55326185Y-49437470D01*
%TD*%
M02*
