%TF.GenerationSoftware,KiCad,Pcbnew,5.1.10*%
%TF.CreationDate,2021-09-11T14:13:10+02:00*%
%TF.ProjectId,seegeist,73656567-6569-4737-942e-6b696361645f,rev?*%
%TF.SameCoordinates,Original*%
%TF.FileFunction,Profile,NP*%
%FSLAX46Y46*%
G04 Gerber Fmt 4.6, Leading zero omitted, Abs format (unit mm)*
G04 Created by KiCad (PCBNEW 5.1.10) date 2021-09-11 14:13:10*
%MOMM*%
%LPD*%
G01*
G04 APERTURE LIST*
%TA.AperFunction,Profile*%
%ADD10C,0.100000*%
%TD*%
G04 APERTURE END LIST*
D10*
X41027000Y-69805300D02*
X40567700Y-69724700D01*
X40567700Y-69724700D02*
X40129100Y-69636400D01*
X40129100Y-69636400D02*
X39711500Y-69539900D01*
X39711500Y-69539900D02*
X39315500Y-69435600D01*
X39315500Y-69435600D02*
X38941600Y-69324300D01*
X38941600Y-69324300D02*
X38590300Y-69206000D01*
X38590300Y-69206000D02*
X38261900Y-69080600D01*
X38261900Y-69080600D02*
X37957000Y-68948200D01*
X37957000Y-68948200D02*
X37676200Y-68809400D01*
X37676200Y-68809400D02*
X37419800Y-68664900D01*
X37419800Y-68664900D02*
X37188200Y-68513900D01*
X37188200Y-68513900D02*
X36982100Y-68356600D01*
X36982100Y-68356600D02*
X36801800Y-68194100D01*
X36801800Y-68194100D02*
X36647900Y-68026500D01*
X36647900Y-68026500D02*
X36520800Y-67853200D01*
X36520800Y-67853200D02*
X36420900Y-67675400D01*
X36420900Y-67675400D02*
X36336800Y-67489900D01*
X36336800Y-67489900D02*
X36278300Y-67325500D01*
X36278300Y-67325500D02*
X36246400Y-67163700D01*
X36246400Y-67163700D02*
X36242100Y-66986500D01*
X36242100Y-66986500D02*
X36266400Y-66774100D01*
X36266400Y-66774100D02*
X36320200Y-66508100D01*
X36320200Y-66508100D02*
X36520100Y-65741800D01*
X36520100Y-65741800D02*
X36655000Y-65218600D01*
X36655000Y-65218600D02*
X36740100Y-64794500D01*
X36740100Y-64794500D02*
X36762700Y-64614800D01*
X36762700Y-64614800D02*
X36771400Y-64452900D01*
X36771400Y-64452900D02*
X36765600Y-64307100D01*
X36765600Y-64307100D02*
X36744800Y-64175400D01*
X36744800Y-64175400D02*
X36708600Y-64055100D01*
X36708600Y-64055100D02*
X36656600Y-63944500D01*
X36656600Y-63944500D02*
X36588000Y-63841500D01*
X36588000Y-63841500D02*
X36502600Y-63743000D01*
X36502600Y-63743000D02*
X36399600Y-63647700D01*
X36399600Y-63647700D02*
X36278900Y-63553000D01*
X36278900Y-63553000D02*
X35981600Y-63357300D01*
X35981600Y-63357300D02*
X35729800Y-63222300D01*
X35729800Y-63222300D02*
X35603500Y-63169900D01*
X35603500Y-63169900D02*
X35475600Y-63126400D01*
X35475600Y-63126400D02*
X35345400Y-63093100D01*
X35345400Y-63093100D02*
X35211800Y-63069500D01*
X35211800Y-63069500D02*
X35074000Y-63055400D01*
X35074000Y-63055400D02*
X34931100Y-63050900D01*
X34931100Y-63050900D02*
X34626400Y-63071400D01*
X34626400Y-63071400D02*
X34290400Y-63130200D01*
X34290400Y-63130200D02*
X33916100Y-63228700D01*
X33916100Y-63228700D02*
X33496200Y-63365600D01*
X33496200Y-63365600D02*
X33081900Y-63503700D01*
X33081900Y-63503700D02*
X32728800Y-63602200D01*
X32728800Y-63602200D02*
X32424100Y-63660400D01*
X32424100Y-63660400D02*
X32155300Y-63678400D01*
X32155300Y-63678400D02*
X32030400Y-63672600D01*
X32030400Y-63672600D02*
X31909700Y-63656600D01*
X31909700Y-63656600D02*
X31791600Y-63631000D01*
X31791600Y-63631000D02*
X31674500Y-63594500D01*
X31674500Y-63594500D02*
X31437200Y-63492200D01*
X31437200Y-63492200D02*
X31185100Y-63349500D01*
X31185100Y-63349500D02*
X31034900Y-63251000D01*
X31034900Y-63251000D02*
X30897200Y-63148100D01*
X30897200Y-63148100D02*
X30771800Y-63041300D01*
X30771800Y-63041300D02*
X30658500Y-62929300D01*
X30658500Y-62929300D02*
X30557200Y-62811600D01*
X30557200Y-62811600D02*
X30467700Y-62689500D01*
X30467700Y-62689500D02*
X30390000Y-62560900D01*
X30390000Y-62560900D02*
X30323600Y-62425900D01*
X30323600Y-62425900D02*
X30268700Y-62284600D01*
X30268700Y-62284600D02*
X30224900Y-62136200D01*
X30224900Y-62136200D02*
X30192200Y-61980800D01*
X30192200Y-61980800D02*
X30170400Y-61817700D01*
X30170400Y-61817700D02*
X30159200Y-61646200D01*
X30159200Y-61646200D02*
X30158700Y-61467100D01*
X30158700Y-61467100D02*
X30188800Y-61081500D01*
X30188800Y-61081500D02*
X30219000Y-60813500D01*
X30219000Y-60813500D02*
X30234200Y-60594700D01*
X30234200Y-60594700D02*
X30231600Y-60413000D01*
X30231600Y-60413000D02*
X30208800Y-60258300D01*
X30208800Y-60258300D02*
X30163000Y-60118200D01*
X30163000Y-60118200D02*
X30091700Y-59982600D01*
X30091700Y-59982600D02*
X29992200Y-59839900D01*
X29992200Y-59839900D02*
X29862080Y-59678800D01*
X29862080Y-59678800D02*
X29694050Y-59498400D01*
X29694050Y-59498400D02*
X29503450Y-59337300D01*
X29503450Y-59337300D02*
X29275040Y-59188900D01*
X29275040Y-59188900D02*
X28993600Y-59045600D01*
X28993600Y-59045600D02*
X28643920Y-58900400D01*
X28643920Y-58900400D02*
X28210830Y-58747500D01*
X28210830Y-58747500D02*
X27679120Y-58578700D01*
X27679120Y-58578700D02*
X27033610Y-58387400D01*
X27033610Y-58387400D02*
X26794970Y-58312600D01*
X26794970Y-58312600D02*
X26576280Y-58230700D01*
X26576280Y-58230700D02*
X26376460Y-58142400D01*
X26376460Y-58142400D02*
X26194300Y-58046500D01*
X26194300Y-58046500D02*
X26028700Y-57942200D01*
X26028700Y-57942200D02*
X25878390Y-57829000D01*
X25878390Y-57829000D02*
X25742340Y-57705600D01*
X25742340Y-57705600D02*
X25619340Y-57571900D01*
X25619340Y-57571900D02*
X25460720Y-57381300D01*
X25460720Y-57381300D02*
X25345840Y-57212400D01*
X25345840Y-57212400D02*
X25304270Y-57123500D01*
X25304270Y-57123500D02*
X25272930Y-57026300D01*
X25272930Y-57026300D02*
X25251630Y-56914400D01*
X25251630Y-56914400D02*
X25240110Y-56783200D01*
X25240110Y-56783200D02*
X25245420Y-56444200D01*
X25245420Y-56444200D02*
X25287060Y-55969600D01*
X25287060Y-55969600D02*
X25471910Y-54455700D01*
X25471910Y-54455700D02*
X25581990Y-53584500D01*
X25581990Y-53584500D02*
X24335180Y-52999200D01*
X24335180Y-52999200D02*
X23218460Y-52497800D01*
X23218460Y-52497800D02*
X22694930Y-52275800D01*
X22694930Y-52275800D02*
X22284360Y-52112700D01*
X22284360Y-52112700D02*
X21929300Y-51964300D01*
X21929300Y-51964300D02*
X21609050Y-51798700D01*
X21609050Y-51798700D02*
X21327420Y-51619600D01*
X21327420Y-51619600D02*
X21088330Y-51430300D01*
X21088330Y-51430300D02*
X20895548Y-51234500D01*
X20895548Y-51234500D02*
X20817834Y-51135400D01*
X20817834Y-51135400D02*
X20753104Y-51035600D01*
X20753104Y-51035600D02*
X20701934Y-50935800D01*
X20701934Y-50935800D02*
X20664772Y-50836700D01*
X20664772Y-50836700D02*
X20642130Y-50738800D01*
X20642130Y-50738800D02*
X20634455Y-50642300D01*
X20634455Y-50642300D02*
X20658632Y-50444600D01*
X20658632Y-50444600D02*
X20727264Y-50060200D01*
X20727264Y-50060200D02*
X20974540Y-48835800D01*
X20974540Y-48835800D02*
X21329720Y-47177400D01*
X21329720Y-47177400D02*
X21746120Y-45293200D01*
X21746120Y-45293200D02*
X22177160Y-43391300D01*
X22177160Y-43391300D02*
X22576220Y-41680100D01*
X22576220Y-41680100D02*
X22896730Y-40367900D01*
X22896730Y-40367900D02*
X23012890Y-39926500D01*
X23012890Y-39926500D02*
X23091940Y-39663000D01*
X23091940Y-39663000D02*
X23211940Y-39346000D01*
X23211940Y-39346000D02*
X23339030Y-39057600D01*
X23339030Y-39057600D02*
X23474440Y-38796700D01*
X23474440Y-38796700D02*
X23619700Y-38562700D01*
X23619700Y-38562700D02*
X23776080Y-38354800D01*
X23776080Y-38354800D02*
X23945010Y-38172000D01*
X23945010Y-38172000D02*
X24127810Y-38013600D01*
X24127810Y-38013600D02*
X24325840Y-37878700D01*
X24325840Y-37878700D02*
X24540560Y-37766500D01*
X24540560Y-37766500D02*
X24773320Y-37676300D01*
X24773320Y-37676300D02*
X25025390Y-37607200D01*
X25025390Y-37607200D02*
X25298250Y-37558300D01*
X25298250Y-37558300D02*
X25593250Y-37528800D01*
X25593250Y-37528800D02*
X25911780Y-37518000D01*
X25911780Y-37518000D02*
X26255130Y-37525000D01*
X26255130Y-37525000D02*
X26624700Y-37548900D01*
X26624700Y-37548900D02*
X27241490Y-37612800D01*
X27241490Y-37612800D02*
X27907080Y-37701600D01*
X27907080Y-37701600D02*
X28541330Y-37803700D01*
X28541330Y-37803700D02*
X29064350Y-37907100D01*
X29064350Y-37907100D02*
X29566830Y-38001400D01*
X29566830Y-38001400D02*
X30145400Y-38078700D01*
X30145400Y-38078700D02*
X30728600Y-38131000D01*
X30728600Y-38131000D02*
X31244700Y-38150100D01*
X31244700Y-38150100D02*
X31686900Y-38141500D01*
X31686900Y-38141500D02*
X32094000Y-38114400D01*
X32094000Y-38114400D02*
X32467800Y-38067500D01*
X32467800Y-38067500D02*
X32810500Y-37999000D01*
X32810500Y-37999000D02*
X33123700Y-37907300D01*
X33123700Y-37907300D02*
X33409600Y-37791000D01*
X33409600Y-37791000D02*
X33670000Y-37648300D01*
X33670000Y-37648300D02*
X33906800Y-37477800D01*
X33906800Y-37477800D02*
X34122100Y-37277900D01*
X34122100Y-37277900D02*
X34317700Y-37046900D01*
X34317700Y-37046900D02*
X34495500Y-36783300D01*
X34495500Y-36783300D02*
X34657500Y-36485500D01*
X34657500Y-36485500D02*
X34805600Y-36151900D01*
X34805600Y-36151900D02*
X34941800Y-35781000D01*
X34941800Y-35781000D02*
X35068000Y-35371000D01*
X35068000Y-35371000D02*
X35186100Y-34920600D01*
X35186100Y-34920600D02*
X35356000Y-34251400D01*
X35356000Y-34251400D02*
X35531700Y-33617600D01*
X35531700Y-33617600D02*
X35714100Y-33017100D01*
X35714100Y-33017100D02*
X35904600Y-32448060D01*
X35904600Y-32448060D02*
X36104000Y-31908280D01*
X36104000Y-31908280D02*
X36313400Y-31395880D01*
X36313400Y-31395880D02*
X36534000Y-30908810D01*
X36534000Y-30908810D02*
X36766700Y-30444960D01*
X36766700Y-30444960D02*
X37012700Y-30002340D01*
X37012700Y-30002340D02*
X37273000Y-29578970D01*
X37273000Y-29578970D02*
X37548700Y-29172810D01*
X37548700Y-29172810D02*
X37840900Y-28781810D01*
X37840900Y-28781810D02*
X38150600Y-28403990D01*
X38150600Y-28403990D02*
X38478800Y-28037230D01*
X38478800Y-28037230D02*
X38826800Y-27679620D01*
X38826800Y-27679620D02*
X39195500Y-27329100D01*
X39195500Y-27329100D02*
X39512700Y-27045500D01*
X39512700Y-27045500D02*
X39824500Y-26781590D01*
X39824500Y-26781590D02*
X40132000Y-26536680D01*
X40132000Y-26536680D02*
X40436700Y-26310120D01*
X40436700Y-26310120D02*
X40740000Y-26101220D01*
X40740000Y-26101220D02*
X41043300Y-25909210D01*
X41043300Y-25909210D02*
X41347900Y-25733570D01*
X41347900Y-25733570D02*
X41655200Y-25573540D01*
X41655200Y-25573540D02*
X41966600Y-25428410D01*
X41966600Y-25428410D02*
X42283400Y-25297540D01*
X42283400Y-25297540D02*
X42607200Y-25180230D01*
X42607200Y-25180230D02*
X42939100Y-25075850D01*
X42939100Y-25075850D02*
X43280600Y-24983680D01*
X43280600Y-24983680D02*
X43633000Y-24903080D01*
X43633000Y-24903080D02*
X43997800Y-24833300D01*
X43997800Y-24833300D02*
X44376400Y-24773690D01*
X44376400Y-24773690D02*
X44794800Y-24724760D01*
X44794800Y-24724760D02*
X45211700Y-24696550D01*
X45211700Y-24696550D02*
X45626700Y-24688870D01*
X45626700Y-24688870D02*
X46039500Y-24701470D01*
X46039500Y-24701470D02*
X46449500Y-24734160D01*
X46449500Y-24734160D02*
X46856300Y-24786540D01*
X46856300Y-24786540D02*
X47259900Y-24858430D01*
X47259900Y-24858430D02*
X47659700Y-24949580D01*
X47659700Y-24949580D02*
X48054900Y-25059720D01*
X48054900Y-25059720D02*
X48445700Y-25188610D01*
X48445700Y-25188610D02*
X48832100Y-25335980D01*
X48832100Y-25335980D02*
X49212700Y-25501570D01*
X49212700Y-25501570D02*
X49588100Y-25685210D01*
X49588100Y-25685210D02*
X49957200Y-25886500D01*
X49957200Y-25886500D02*
X50320500Y-26105250D01*
X50320500Y-26105250D02*
X50676100Y-26341270D01*
X50676100Y-26341270D02*
X51025300Y-26594180D01*
X51025300Y-26594180D02*
X51366900Y-26863840D01*
X51366900Y-26863840D02*
X51700800Y-27149940D01*
X51700800Y-27149940D02*
X52026400Y-27452230D01*
X52026400Y-27452230D02*
X52343000Y-27770440D01*
X52343000Y-27770440D02*
X52651300Y-28104390D01*
X52651300Y-28104390D02*
X52950000Y-28453680D01*
X52950000Y-28453680D02*
X53239100Y-28818200D01*
X53239100Y-28818200D02*
X53517900Y-29197630D01*
X53517900Y-29197630D02*
X53786600Y-29591700D01*
X53786600Y-29591700D02*
X54044400Y-30000220D01*
X54044400Y-30000220D02*
X54291200Y-30422820D01*
X54291200Y-30422820D02*
X54526600Y-30859360D01*
X54526600Y-30859360D02*
X54749900Y-31309590D01*
X54749900Y-31309590D02*
X54960900Y-31773130D01*
X54960900Y-31773130D02*
X55159200Y-32249840D01*
X55159200Y-32249840D02*
X55513600Y-33118300D01*
X55513600Y-33118300D02*
X55841700Y-33872000D01*
X55841700Y-33872000D02*
X56150600Y-34521700D01*
X56150600Y-34521700D02*
X56446100Y-35078600D01*
X56446100Y-35078600D02*
X56734000Y-35553500D01*
X56734000Y-35553500D02*
X56877200Y-35763700D01*
X56877200Y-35763700D02*
X57021200Y-35957400D01*
X57021200Y-35957400D02*
X57166300Y-36136200D01*
X57166300Y-36136200D02*
X57313500Y-36301400D01*
X57313500Y-36301400D02*
X57463100Y-36454200D01*
X57463100Y-36454200D02*
X57617300Y-36596200D01*
X57617300Y-36596200D02*
X58024700Y-36938300D01*
X58024700Y-36938300D02*
X58211500Y-37078500D01*
X58211500Y-37078500D02*
X58391900Y-37199100D01*
X58391900Y-37199100D02*
X58569000Y-37300800D01*
X58569000Y-37300800D02*
X58747500Y-37384600D01*
X58747500Y-37384600D02*
X58929800Y-37451100D01*
X58929800Y-37451100D02*
X59119800Y-37501000D01*
X59119800Y-37501000D02*
X59321200Y-37535200D01*
X59321200Y-37535200D02*
X59537400Y-37554400D01*
X59537400Y-37554400D02*
X59772200Y-37559500D01*
X59772200Y-37559500D02*
X60028700Y-37551100D01*
X60028700Y-37551100D02*
X60622900Y-37497100D01*
X60622900Y-37497100D02*
X61347600Y-37398500D01*
X61347600Y-37398500D02*
X62070300Y-37303400D01*
X62070300Y-37303400D02*
X62687600Y-37251100D01*
X62687600Y-37251100D02*
X62960700Y-37241700D01*
X62960700Y-37241700D02*
X63213300Y-37243700D01*
X63213300Y-37243700D02*
X63445500Y-37257400D01*
X63445500Y-37257400D02*
X63659800Y-37283100D01*
X63659800Y-37283100D02*
X63858100Y-37321100D01*
X63858100Y-37321100D02*
X64041000Y-37371500D01*
X64041000Y-37371500D02*
X64211800Y-37434600D01*
X64211800Y-37434600D02*
X64370400Y-37510700D01*
X64370400Y-37510700D02*
X64519400Y-37600100D01*
X64519400Y-37600100D02*
X64660800Y-37703000D01*
X64660800Y-37703000D02*
X64795100Y-37819700D01*
X64795100Y-37819700D02*
X64925000Y-37950300D01*
X64925000Y-37950300D02*
X65203200Y-38263900D01*
X65203200Y-38263900D02*
X65322800Y-38420000D01*
X65322800Y-38420000D02*
X65434100Y-38589600D01*
X65434100Y-38589600D02*
X65539000Y-38783200D01*
X65539000Y-38783200D02*
X65642000Y-39011300D01*
X65642000Y-39011300D02*
X65745600Y-39284300D01*
X65745600Y-39284300D02*
X65853700Y-39612500D01*
X65853700Y-39612500D02*
X65968200Y-40006600D01*
X65968200Y-40006600D02*
X66094200Y-40477000D01*
X66094200Y-40477000D02*
X66389700Y-41688500D01*
X66389700Y-41688500D02*
X66766400Y-43330600D01*
X66766400Y-43330600D02*
X67250000Y-45487100D01*
X67250000Y-45487100D02*
X67571700Y-46944500D01*
X67571700Y-46944500D02*
X67818000Y-48099700D01*
X67818000Y-48099700D02*
X67993900Y-48994100D01*
X67993900Y-48994100D02*
X68105800Y-49668900D01*
X68105800Y-49668900D02*
X68139100Y-49937500D01*
X68139100Y-49937500D02*
X68158200Y-50166500D01*
X68158200Y-50166500D02*
X68164600Y-50361000D01*
X68164600Y-50361000D02*
X68158200Y-50527300D01*
X68158200Y-50527300D02*
X68140300Y-50669300D01*
X68140300Y-50669300D02*
X68111600Y-50793400D01*
X68111600Y-50793400D02*
X68071900Y-50903400D01*
X68071900Y-50903400D02*
X68022600Y-51005700D01*
X68022600Y-51005700D02*
X67982300Y-51062000D01*
X67982300Y-51062000D02*
X67918400Y-51124700D01*
X67918400Y-51124700D02*
X67718200Y-51268000D01*
X67718200Y-51268000D02*
X67424600Y-51434900D01*
X67424600Y-51434900D02*
X67037600Y-51625500D01*
X67037600Y-51625500D02*
X66559200Y-51838500D01*
X66559200Y-51838500D02*
X65990600Y-52074500D01*
X65990600Y-52074500D02*
X65332400Y-52331600D01*
X65332400Y-52331600D02*
X64586000Y-52609900D01*
X64586000Y-52609900D02*
X64223900Y-52758900D01*
X64223900Y-52758900D02*
X63885600Y-52930300D01*
X63885600Y-52930300D02*
X63577900Y-53117100D01*
X63577900Y-53117100D02*
X63308600Y-53314100D01*
X63308600Y-53314100D02*
X63086000Y-53514300D01*
X63086000Y-53514300D02*
X62994600Y-53614100D01*
X62994600Y-53614100D02*
X62917800Y-53711900D01*
X62917800Y-53711900D02*
X62855800Y-53807900D01*
X62855800Y-53807900D02*
X62811000Y-53900600D01*
X62811000Y-53900600D02*
X62782900Y-53990200D01*
X62782900Y-53990200D02*
X62773300Y-54074600D01*
X62773300Y-54074600D02*
X62784100Y-54153900D01*
X62784100Y-54153900D02*
X62813600Y-54256300D01*
X62813600Y-54256300D02*
X62922900Y-54510200D01*
X62922900Y-54510200D02*
X63084100Y-54802500D01*
X63084100Y-54802500D02*
X63281100Y-55100600D01*
X63281100Y-55100600D02*
X63477500Y-55389000D01*
X63477500Y-55389000D02*
X63622700Y-55646800D01*
X63622700Y-55646800D02*
X63675800Y-55767000D01*
X63675800Y-55767000D02*
X63716700Y-55882800D01*
X63716700Y-55882800D02*
X63745500Y-55995400D01*
X63745500Y-55995400D02*
X63761500Y-56106000D01*
X63761500Y-56106000D02*
X63765300Y-56215400D01*
X63765300Y-56215400D02*
X63757000Y-56325400D01*
X63757000Y-56325400D02*
X63736500Y-56436700D01*
X63736500Y-56436700D02*
X63703900Y-56550600D01*
X63703900Y-56550600D02*
X63604100Y-56790400D01*
X63604100Y-56790400D02*
X63457000Y-57054000D01*
X63457000Y-57054000D02*
X63297100Y-57285500D01*
X63297100Y-57285500D02*
X63208800Y-57390400D01*
X63208800Y-57390400D02*
X63113500Y-57488900D01*
X63113500Y-57488900D02*
X63009900Y-57581700D01*
X63009900Y-57581700D02*
X62896700Y-57668600D01*
X62896700Y-57668600D02*
X62772600Y-57751200D01*
X62772600Y-57751200D02*
X62636400Y-57829800D01*
X62636400Y-57829800D02*
X62324200Y-57978200D01*
X62324200Y-57978200D02*
X61950100Y-58118300D01*
X61950100Y-58118300D02*
X61504200Y-58255800D01*
X61504200Y-58255800D02*
X60977800Y-58395300D01*
X60977800Y-58395300D02*
X60676600Y-58475200D01*
X60676600Y-58475200D02*
X60407900Y-58559000D01*
X60407900Y-58559000D02*
X60167400Y-58647900D01*
X60167400Y-58647900D02*
X59951900Y-58743200D01*
X59951900Y-58743200D02*
X59757400Y-58847500D01*
X59757400Y-58847500D02*
X59580300Y-58962000D01*
X59580300Y-58962000D02*
X59417200Y-59089200D01*
X59417200Y-59089200D02*
X59263600Y-59230000D01*
X59263600Y-59230000D02*
X59089700Y-59407800D01*
X59089700Y-59407800D02*
X58957300Y-59560600D01*
X58957300Y-59560600D02*
X58862000Y-59707100D01*
X58862000Y-59707100D02*
X58798600Y-59865100D01*
X58798600Y-59865100D02*
X58761500Y-60051200D01*
X58761500Y-60051200D02*
X58744900Y-60284100D01*
X58744900Y-60284100D02*
X58744900Y-60580800D01*
X58744900Y-60580800D02*
X58755800Y-60958900D01*
X58755800Y-60958900D02*
X58762800Y-61572200D01*
X58762800Y-61572200D02*
X58750600Y-61800600D01*
X58750600Y-61800600D02*
X58725100Y-61988600D01*
X58725100Y-61988600D02*
X58685400Y-62146000D01*
X58685400Y-62146000D02*
X58629100Y-62279700D01*
X58629100Y-62279700D02*
X58554900Y-62399900D01*
X58554900Y-62399900D02*
X58461500Y-62515100D01*
X58461500Y-62515100D02*
X58364300Y-62614800D01*
X58364300Y-62614800D02*
X58270300Y-62693500D01*
X58270300Y-62693500D02*
X58175000Y-62752400D01*
X58175000Y-62752400D02*
X58073900Y-62792000D01*
X58073900Y-62792000D02*
X57963300Y-62814400D01*
X57963300Y-62814400D02*
X57839200Y-62820800D01*
X57839200Y-62820800D02*
X57695900Y-62811800D01*
X57695900Y-62811800D02*
X57530900Y-62789400D01*
X57530900Y-62789400D02*
X56443500Y-62622500D01*
X56443500Y-62622500D02*
X56063600Y-62576400D01*
X56063600Y-62576400D02*
X55765500Y-62554700D01*
X55765500Y-62554700D02*
X55528200Y-62557300D01*
X55528200Y-62557300D02*
X55331200Y-62581600D01*
X55331200Y-62581600D02*
X55152100Y-62628300D01*
X55152100Y-62628300D02*
X54971800Y-62696100D01*
X54971800Y-62696100D02*
X54859200Y-62750400D01*
X54859200Y-62750400D02*
X54742100Y-62820200D01*
X54742100Y-62820200D02*
X54510000Y-62994100D01*
X54510000Y-62994100D02*
X54301400Y-63196300D01*
X54301400Y-63196300D02*
X54215100Y-63300500D01*
X54215100Y-63300500D02*
X54144700Y-63402900D01*
X54144700Y-63402900D02*
X54052000Y-63562800D01*
X54052000Y-63562800D02*
X53986100Y-63703500D01*
X53986100Y-63703500D02*
X53948400Y-63844800D01*
X53948400Y-63844800D02*
X53938800Y-64004100D01*
X53938800Y-64004100D02*
X53957900Y-64200500D01*
X53957900Y-64200500D02*
X54007200Y-64451800D01*
X54007200Y-64451800D02*
X54194000Y-65193200D01*
X54194000Y-65193200D02*
X54283500Y-65548100D01*
X54283500Y-65548100D02*
X54352600Y-65871800D01*
X54352600Y-65871800D02*
X54400600Y-66167300D01*
X54400600Y-66167300D02*
X54426800Y-66437200D01*
X54426800Y-66437200D02*
X54429400Y-66684100D01*
X54429400Y-66684100D02*
X54406400Y-66909900D01*
X54406400Y-66909900D02*
X54358400Y-67118400D01*
X54358400Y-67118400D02*
X54282300Y-67311600D01*
X54282300Y-67311600D02*
X54177400Y-67492000D01*
X54177400Y-67492000D02*
X54043100Y-67662700D01*
X54043100Y-67662700D02*
X53877400Y-67826500D01*
X53877400Y-67826500D02*
X53679100Y-67985700D01*
X53679100Y-67985700D02*
X53446900Y-68142400D01*
X53446900Y-68142400D02*
X53179600Y-68300400D01*
X53179600Y-68300400D02*
X52875700Y-68461600D01*
X52875700Y-68461600D02*
X52534800Y-68629200D01*
X52534800Y-68629200D02*
X52201600Y-68778900D01*
X52201600Y-68778900D02*
X51856200Y-68918900D01*
X51856200Y-68918900D02*
X51496100Y-69048200D01*
X51496100Y-69048200D02*
X51121300Y-69167800D01*
X51121300Y-69167800D02*
X50730500Y-69277100D01*
X50730500Y-69277100D02*
X50321700Y-69376900D01*
X50321700Y-69376900D02*
X49894500Y-69467700D01*
X49894500Y-69467700D02*
X49446700Y-69549000D01*
X49446700Y-69549000D02*
X48978500Y-69621300D01*
X48978500Y-69621300D02*
X48487300Y-69684600D01*
X48487300Y-69684600D02*
X47973100Y-69738900D01*
X47973100Y-69738900D02*
X47433900Y-69785600D01*
X47433900Y-69785600D02*
X46868400Y-69824000D01*
X46868400Y-69824000D02*
X46276100Y-69854100D01*
X46276100Y-69854100D02*
X45004100Y-69891200D01*
X45004100Y-69891200D02*
X43721600Y-69900800D01*
X43721600Y-69900800D02*
X42544300Y-69887300D01*
X42544300Y-69887300D02*
X41602700Y-69854700D01*
X41602700Y-69854700D02*
X41260900Y-69832300D01*
X41260900Y-69832300D02*
X41027100Y-69805500D01*
X41027100Y-69805500D02*
X41027000Y-69805500D01*
X41027000Y-69805500D02*
X41027000Y-69805300D01*
M02*
