%TF.GenerationSoftware,KiCad,Pcbnew,5.1.10*%
%TF.CreationDate,2021-09-11T14:13:10+02:00*%
%TF.ProjectId,seegeist,73656567-6569-4737-942e-6b696361645f,rev?*%
%TF.SameCoordinates,Original*%
%TF.FileFunction,Other,Fab,Top*%
%FSLAX46Y46*%
G04 Gerber Fmt 4.6, Leading zero omitted, Abs format (unit mm)*
G04 Created by KiCad (PCBNEW 5.1.10) date 2021-09-11 14:13:10*
%MOMM*%
%LPD*%
G01*
G04 APERTURE LIST*
%ADD10C,0.100000*%
%ADD11C,0.150000*%
%ADD12C,0.120000*%
G04 APERTURE END LIST*
D10*
%TO.C,*%
X48899959Y-34157220D02*
X51324830Y-32757220D01*
X51324830Y-32757220D02*
X51471241Y-32210810D01*
X51471241Y-32210810D02*
X50871241Y-31171580D01*
X50871241Y-31171580D02*
X48099959Y-32771580D01*
X48099959Y-32771580D02*
X48899959Y-34157220D01*
X42800805Y-34270020D02*
X43600805Y-32884380D01*
X40029523Y-32670020D02*
X42800805Y-34270020D01*
X40629523Y-31630790D02*
X40029523Y-32670020D01*
X41175934Y-31484380D02*
X40629523Y-31630790D01*
X43600805Y-32884380D02*
X41175934Y-31484380D01*
%TD*%
%TO.C,*%
D11*
X48645059Y-31801435D02*
X48232666Y-32039531D01*
X47732666Y-31173505D01*
X48671830Y-31181136D02*
X48960505Y-31014470D01*
X49346128Y-31396674D02*
X48933734Y-31634769D01*
X48433734Y-30768743D01*
X48846128Y-30530648D01*
X49717281Y-31182388D02*
X49217281Y-30316362D01*
X49423478Y-30197315D01*
X49571005Y-30167126D01*
X49701103Y-30201985D01*
X49789961Y-30260654D01*
X49926439Y-30401802D01*
X49997867Y-30525520D01*
X50051866Y-30714287D01*
X50058246Y-30820575D01*
X50023386Y-30950672D01*
X49923478Y-31063340D01*
X49717281Y-31182388D01*
D12*
D11*
X40122242Y-34423710D02*
X39709849Y-34185615D01*
X40209849Y-33319590D01*
X40672822Y-34136745D02*
X40961497Y-34303411D01*
X40823311Y-34828472D02*
X40410918Y-34590377D01*
X40910918Y-33724352D01*
X41323311Y-33962447D01*
X41194464Y-35042758D02*
X41694464Y-34176733D01*
X41900661Y-34295780D01*
X42000569Y-34408448D01*
X42035429Y-34538546D01*
X42029049Y-34644834D01*
X41975050Y-34833601D01*
X41903622Y-34957318D01*
X41767144Y-35098466D01*
X41678286Y-35157135D01*
X41548188Y-35191995D01*
X41400661Y-35161806D01*
X41194464Y-35042758D01*
D12*
%TD*%
M02*
